<svg width="240" height="240" viewBox="0 0 240 240" fill="none" xmlns="http://www.w3.org/2000/svg">
<path d="M98.6667 54.2222H95.1111V52.4444H93.3333V50.6667H91.5556V47.1111H93.3333V45.3333H95.1111V43.5556H98.6667V41.7778H107.556V40H132.444V41.7778H141.333V43.5556H144.889V45.3333H146.667V47.1111H148.444V50.6667H146.667V52.4444H144.889V54.2222H141.333V56H132.444V57.7778H107.556V56H98.6667V54.2222Z" fill="#00F37B"/>
<path d="M98.6667 56V57.7778H107.556V59.5556H132.444V57.7778H143.111V56H144.889V54.2222H146.667V52.4444H148.444V59.5556H146.667V61.3333H141.333V63.1111H132.444V64.8889H123.556V66.6667H121.778V64.8889H120V66.6667H118.222V64.8889H107.556V63.1111H98.6667V61.3333H93.3333V59.5556H91.5556V52.4444H93.3333V54.2222H95.1111V56H98.6667Z" fill="#00F37B"/>
<path d="M93.3333 72V61.3333H91.5556V72H93.3333Z" fill="#00F37B"/>
<path d="M116.444 96.8889H118.222V98.6667H116.444V96.8889Z" fill="#00F37B"/>
<path d="M116.444 102.222H114.667V104H116.444V102.222Z" fill="#00F37B"/>
<path d="M114.667 96.8889H111.111V98.6667H114.667V96.8889Z" fill="#00F37B"/>
<path d="M109.333 96.8889H107.556V98.6667H109.333V96.8889Z" fill="#00F37B"/>
<path d="M121.778 100.444H118.222V102.222H121.778V100.444Z" fill="#00F37B"/>
<path d="M132.444 79.1111H134.222V80.8889H132.444V79.1111Z" fill="#00F37B"/>
<path d="M127.111 100.444H125.333V102.222H127.111V100.444Z" fill="#00F37B"/>
<path d="M137.778 105.778H139.556V107.556H137.778V105.778Z" fill="#00F37B"/>
<path d="M125.333 96.8889H123.556V98.6667H125.333V96.8889Z" fill="#00F37B"/>
<path d="M118.222 105.778H120V107.556H118.222V105.778Z" fill="#00F37B"/>
<path d="M123.556 104H121.778V105.778H123.556V104Z" fill="#00F37B"/>
<path d="M125.333 107.556H127.111V109.333H125.333V107.556Z" fill="#00F37B"/>
<path d="M107.556 80.8889H105.778V82.6667H107.556V80.8889Z" fill="#00F37B"/>
<path d="M132.444 91.5556H137.778V93.3333H132.444V91.5556Z" fill="#00F37B"/>
<path d="M107.556 93.3333H132.444V95.1111H107.556V93.3333Z" fill="#00F37B"/>
<path d="M107.556 91.5556V93.3333H102.222V91.5556H107.556Z" fill="#00F37B"/>
<path d="M128.889 80.8889H127.111V82.6667H128.889V80.8889Z" fill="#00F37B"/>
<path d="M111.111 80.8889H123.556V82.6667H111.111V80.8889Z" fill="#00F37B"/>
<path fill-rule="evenodd" clip-rule="evenodd" d="M95.1111 173.333H93.3333V171.556H95.1111V169.778H93.3333V168H95.1111V166.222H96.8889V164.444H95.1111V162.667H93.3333V160.889H95.1111V159.111H96.8889V157.333H95.1111V155.556H93.3333V153.778H95.1111V152H96.8889V150.222H95.1111V148.444H93.3333V146.667H95.1111V144.889H96.8889V143.111H95.1111V141.333H93.3333V139.556H95.1111V137.778H96.8889V136H95.1111V134.222H93.3333V132.444H95.1111V130.667H96.8889V128.889H95.1111V127.111H93.3333V125.333H95.1111V123.556H96.8889V121.778H95.1111V120H93.3333V118.222H95.1111V116.444H96.8889V114.667H95.1111V112.889H93.3333V111.111H91.5556V112.889H93.3333V114.667H91.5556V116.444H93.3333V118.222H91.5556V120H93.3333V121.778H91.5556V123.556H93.3333V125.333H91.5556V127.111H93.3333V128.889H91.5556V130.667H93.3333V132.444H91.5556V134.222H93.3333V136H91.5556V137.778H93.3333V139.556H91.5556V141.333H93.3333V143.111H91.5556V144.889H93.3333V146.667H91.5556V148.444H93.3333V150.222H91.5556V152H93.3333V153.778H91.5556V155.556H93.3333V157.333H91.5556V159.111H93.3333V160.889H91.5556V162.667H93.3333V164.444H91.5556V166.222H93.3333V168H91.5556V169.778H93.3333V171.556H91.5556V173.333H93.3333V175.111H91.5556V176.889H93.3333V175.111H95.1111V173.333ZM93.3333 166.222V164.444H95.1111V166.222H93.3333ZM93.3333 159.111H95.1111V157.333H93.3333V159.111ZM93.3333 152V150.222H95.1111V152H93.3333ZM93.3333 144.889H95.1111V143.111H93.3333V144.889ZM93.3333 137.778H95.1111V136H93.3333V137.778ZM93.3333 130.667H95.1111V128.889H93.3333V130.667ZM93.3333 123.556H95.1111V121.778H93.3333V123.556ZM93.3333 116.444H95.1111V114.667H93.3333V116.444Z" fill="#00F37B"/>
<path d="M120 114.667H118.222V116.444H120V114.667Z" fill="#00F37B"/>
<path d="M120 168V169.778H112.889V162.667H120V164.444H116.444V166.222H118.222V168H120Z" fill="#00F37B"/>
<path d="M111.111 168H109.333V166.222H111.111V162.667H109.333V166.222H107.556V162.667H104V169.778H107.556V168H109.333V169.778H111.111V168Z" fill="#00F37B"/>
<path d="M102.222 173.333V171.556H139.556V173.333H132.444V175.111H109.333V173.333H102.222Z" fill="#00F37B"/>
<path d="M132.444 136H130.667V137.778H132.444V136Z" fill="#00F37B"/>
<path d="M127.111 136H128.889V137.778H127.111V136Z" fill="#00F37B"/>
<path fill-rule="evenodd" clip-rule="evenodd" d="M139.556 121.778H141.333V171.556H139.556V160.889H102.222V171.556H100.444V121.778H102.222V123.556H109.333V125.333H132.444V123.556H139.556V121.778ZM102.222 128.889H104V130.667H102.222V128.889ZM102.222 134.222H104V137.778H102.222V134.222ZM102.222 141.333H104V143.111H102.222V141.333ZM102.222 148.444H104V150.222H102.222V148.444ZM111.111 146.667H109.333V139.556H111.111V137.778H112.889V136H114.667V134.222H121.778V136H123.556V137.778H125.333V130.667H127.111V132.444H128.889V134.222H130.667V132.444H132.444V130.667H134.222V141.333H132.444V144.889H130.667V150.222H128.889V155.556H130.667V157.333H127.111V155.556H125.333V148.444H123.556V146.667H121.778V144.889H120V143.111H118.222V144.889H116.444V146.667H114.667V155.556H116.444V157.333H112.889V155.556H111.111V146.667ZM109.333 132.444V139.556H107.556V132.444H109.333ZM109.333 132.444V130.667H111.111V132.444H109.333ZM102.222 152H104V157.333H102.222V152Z" fill="#00F37B"/>
<path d="M139.556 121.778H137.778V120H139.556V121.778Z" fill="#00F37B"/>
<path d="M114.667 114.667H111.111V116.444H114.667V114.667Z" fill="#00F37B"/>
<path d="M91.5556 182.222H93.3333V184H91.5556V182.222Z" fill="#00F37B"/>
<path d="M121.778 166.222H123.556V169.778H127.111V166.222H128.889V162.667H121.778V166.222Z" fill="#00F37B"/>
<path d="M91.5556 178.667H93.3333V180.444H91.5556V178.667Z" fill="#00F37B"/>
<path fill-rule="evenodd" clip-rule="evenodd" d="M134.222 168V169.778H130.667V162.667H137.778V169.778H136V168H134.222ZM134.222 166.222H136V164.444H134.222V166.222Z" fill="#00F37B"/>
<path d="M123.556 116.444V114.667H127.111V116.444H123.556Z" fill="#00F37B"/>
<path d="M118.222 184V182.222H121.778V184H118.222Z" fill="#00F37B"/>
<path d="M120 187.556H118.222V189.333H120V187.556Z" fill="#00F37B"/>
<path d="M121.778 185.778H123.556V187.556H121.778V185.778Z" fill="#00F37B"/>
<path d="M114.667 184H116.444V185.778H114.667V184Z" fill="#00F37B"/>
<path d="M105.778 184H107.556V185.778H105.778V184Z" fill="#00F37B"/>
<path d="M137.778 176.889H139.556V178.667H137.778V176.889Z" fill="#00F37B"/>
<path d="M139.556 112.889H137.778V114.667H139.556V112.889Z" fill="#00F37B"/>
<path d="M137.778 184H139.556V185.778H137.778V184Z" fill="#00F37B"/>
<path d="M127.111 182.222H125.333V184H127.111V182.222Z" fill="#00F37B"/>
<path d="M125.333 189.333H127.111V191.111H125.333V189.333Z" fill="#00F37B"/>
<path d="M139.556 189.333H137.778V191.111H139.556V189.333Z" fill="#00F37B"/>
<path d="M123.556 178.667H125.333V180.444H123.556V178.667Z" fill="#00F37B"/>
<path d="M120 178.667H118.222V180.444H120V178.667Z" fill="#00F37B"/>
<path d="M144.889 182.222H146.667V180.444H144.889V182.222Z" fill="#00F37B"/>
<path d="M144.889 175.111H146.667V173.333H144.889V175.111Z" fill="#00F37B"/>
<path d="M144.889 118.222V116.444H146.667V118.222H144.889Z" fill="#00F37B"/>
<path fill-rule="evenodd" clip-rule="evenodd" d="M107.556 75.5556V73.7778H98.6667V72H93.3333V73.7778H96.8889V75.5556H98.6667V77.3333H100.444V89.7778H98.6667V93.3333H96.8889V95.1111H95.1111V96.8889H93.3333V98.6667H91.5556V100.444H89.7778V104H88V192.889H89.7778V194.667H93.3333V196.444H98.6667V198.222H107.556V200H132.444V198.222H141.333V196.444H146.667V194.667H150.222V192.889H152V104H150.222V100.444H148.444V98.6667H146.667V96.8889H144.889V95.1111H143.111V93.3333H141.333V89.7778H139.556V77.3333H141.333V75.5556H143.111V73.7778H146.667V72H148.444V61.3333H146.667V72H141.333V73.7778H132.444V75.5556H125.333V73.7778H123.556V72H125.333V70.2222H123.556V68.4444H125.333V66.6667H123.556V68.4444H121.778V66.6667H120V68.4444H118.222V70.2222H120V72H118.222V73.7778H120V75.5556H107.556ZM121.778 73.7778H120V72H121.778V73.7778ZM121.778 70.2222H123.556V72H121.778V70.2222ZM121.778 73.7778H123.556V75.5556H121.778V73.7778ZM107.556 75.5556V77.3333H132.444V75.5556H139.556V77.3333H137.778V89.7778H139.556V93.3333H141.333V95.1111H143.111V96.8889H144.889V98.6667H146.667V100.444H148.444V102.222H144.889V104H143.111V102.222H141.333V104H143.111V105.778H141.333V109.333H132.444V111.111H107.556V109.333H98.6667V107.556H93.3333V104H95.1111V105.778H96.8889V104H98.6667V102.222H100.444V100.444H102.222V98.6667H104V96.8889H102.222V95.1111H100.444V96.8889H98.6667V98.6667H96.8889V100.444H95.1111V102.222H93.3333V104H91.5556V100.444H93.3333V98.6667H95.1111V96.8889H96.8889V95.1111H98.6667V93.3333H100.444V89.7778H102.222V77.3333H100.444V75.5556H107.556ZM96.8889 102.222V104H95.1111V102.222H96.8889ZM98.6667 100.444V102.222H96.8889V100.444H98.6667ZM100.444 98.6667V100.444H98.6667V98.6667H100.444ZM100.444 98.6667V96.8889H102.222V98.6667H100.444ZM91.5556 104V107.556H93.3333V109.333H98.6667V111.111H107.556V112.889H132.444V111.111H141.333V109.333H146.667V107.556H148.444V105.778H146.667V107.556H143.111V105.778H144.889V104H150.222V109.333H148.444V111.111H146.667V112.889H144.889V111.111H143.111V112.889H141.333V114.667H143.111V116.444H141.333V118.222H143.111V120H144.889V121.778H143.111V123.556H144.889V125.333H143.111V127.111H144.889V128.889H143.111V130.667H144.889V132.444H143.111V134.222H144.889V136H143.111V137.778H144.889V139.556H143.111V141.333H144.889V143.111H143.111V144.889H144.889V146.667H143.111V148.444H144.889V150.222H143.111V152H144.889V153.778H143.111V155.556H144.889V157.333H143.111V159.111H144.889V160.889H143.111V162.667H144.889V164.444H143.111V166.222H144.889V168H143.111V169.778H144.889V171.556H143.111V173.333H141.333V175.111H143.111V176.889H141.333V178.667H143.111V180.444H141.333V182.222H143.111V184H141.333V185.778H143.111V187.556H141.333V189.333H143.111V191.111H141.333V192.889H139.556V194.667H137.778V192.889H136V194.667H134.222V192.889H132.444V194.667H130.667V196.444H128.889V194.667H127.111V196.444H125.333V194.667H123.556V196.444H121.778V194.667H120V196.444H118.222V194.667H116.444V196.444H114.667V194.667H112.889V196.444H111.111V194.667H109.333V196.444H107.556V194.667H105.778V192.889H104V194.667H102.222V192.889H100.444V194.667H98.6667V192.889H96.8889V194.667H93.3333V192.889H95.1111V191.111H93.3333V189.333H91.5556V191.111H93.3333V192.889H89.7778V104H91.5556ZM100.444 194.667V196.444H102.222V194.667H100.444ZM104 194.667V196.444H105.778V194.667H104ZM109.333 196.444V198.222H111.111V196.444H109.333ZM112.889 196.444V198.222H114.667V196.444H112.889ZM116.444 196.444V198.222H118.222V196.444H116.444ZM120 196.444V198.222H121.778V196.444H120ZM123.556 196.444V198.222H125.333V196.444H123.556ZM127.111 196.444V198.222H128.889V196.444H127.111ZM132.444 196.444V198.222H130.667V196.444H132.444ZM132.444 196.444V194.667H134.222V196.444H132.444ZM136 194.667V196.444H137.778V194.667H136ZM141.333 194.667H139.556V196.444H141.333V194.667ZM143.111 192.889H141.333V194.667H143.111V192.889ZM144.889 192.889V194.667H146.667V192.889H144.889ZM144.889 191.111V192.889H143.111V191.111H144.889ZM144.889 189.333H143.111V187.556H144.889V189.333ZM146.667 189.333V191.111H144.889V189.333H146.667ZM146.667 187.556H148.444V189.333H146.667V187.556ZM144.889 185.778H146.667V187.556H144.889V185.778ZM144.889 184V185.778H143.111V184H144.889ZM144.889 182.222V184H146.667V182.222H148.444V180.444H146.667V178.667H144.889V176.889H146.667V175.111H148.444V173.333H146.667V171.556H144.889V173.333H143.111V175.111H144.889V176.889H143.111V178.667H144.889V180.444H143.111V182.222H144.889ZM146.667 168H144.889V169.778H146.667V168ZM146.667 166.222H148.444V168H146.667V166.222ZM146.667 166.222V164.444H144.889V166.222H146.667ZM146.667 160.889V162.667H144.889V160.889H146.667ZM146.667 159.111H148.444V160.889H146.667V159.111ZM146.667 159.111H144.889V157.333H146.667V159.111ZM146.667 153.778V155.556H144.889V153.778H146.667ZM146.667 152H148.444V153.778H146.667V152ZM146.667 152H144.889V150.222H146.667V152ZM146.667 146.667V148.444H144.889V146.667H146.667ZM146.667 144.889H148.444V146.667H146.667V144.889ZM146.667 144.889H144.889V143.111H146.667V144.889ZM146.667 139.556V141.333H144.889V139.556H146.667ZM146.667 137.778H148.444V139.556H146.667V137.778ZM146.667 137.778V136H144.889V137.778H146.667ZM146.667 132.444H144.889V134.222H146.667V132.444ZM146.667 130.667H148.444V132.444H146.667V130.667ZM146.667 130.667V128.889H144.889V130.667H146.667ZM146.667 125.333H144.889V127.111H146.667V125.333ZM146.667 123.556H148.444V125.333H146.667V123.556ZM146.667 123.556V121.778H144.889V123.556H146.667ZM144.889 118.222V120H146.667V118.222H148.444V116.444H146.667V114.667H144.889V112.889H143.111V114.667H144.889V116.444H143.111V118.222H144.889ZM121.778 70.2222V68.4444H120V70.2222H121.778Z" fill="#00F37B"/>
</svg>
