<svg width="240" height="240" viewBox="0 0 240 240" fill="none" xmlns="http://www.w3.org/2000/svg">
<path d="M129.553 46.1842H131.289V44.4474H141.711V46.1842H155.605V47.9211H164.289V49.6579H166.026V51.3947H167.763V60.0789H166.026V61.8158H155.605V60.0789H141.711V58.3421H126.079V56.6053H112.184V54.8684H96.5526V51.3947H94.8158V49.6579H93.0789V47.9211H94.8158V46.1842H96.5526V44.4474H94.8158V42.7105H96.5526V40.9737H112.184V42.7105H126.079V46.1842H127.816V47.9211H126.079V49.6579H127.816V51.3947H129.553V53.1316H131.289V54.8684H133.026V56.6053H134.763V54.8684H133.026V53.1316H131.289V51.3947H133.026V49.6579H131.289V47.9211H129.553V46.1842Z" fill="#00F37B"/>
<path d="M129.553 49.6579V51.3947H131.289V49.6579H129.553Z" fill="#00F37B"/>
<path d="M129.553 49.6579V47.9211H127.816V49.6579H129.553Z" fill="#00F37B"/>
<path d="M129.553 46.1842H127.816V44.4474H129.553V46.1842Z" fill="#00F37B"/>
<path fill-rule="evenodd" clip-rule="evenodd" d="M82.6579 53.1316H94.8158V51.3947H93.0789V49.6579H91.3421V47.9211H93.0789V46.1842H94.8158V44.4474H93.0789V42.7105H94.8158V40.9737H96.5526V39.2368H82.6579V37.5H73.9737V39.2368H72.2368V40.9737H70.5V49.6579H72.2368V51.3947H82.6579V53.1316ZM93.0789 42.7105H91.3421V40.9737H93.0789V42.7105ZM93.0789 44.4474V46.1842H91.3421V44.4474H93.0789Z" fill="#00F37B"/>
<path fill-rule="evenodd" clip-rule="evenodd" d="M93.0789 193.816H89.6053V192.079H87.8684V190.342H80.9211V188.605H77.4474V186.868H75.7105V167.763H73.9737V127.816H72.2368V87.8684H70.5V54.8684H72.2368V53.1316H82.6579V54.8684H96.5526V56.6053H112.184V58.3421H126.079V60.0789H141.711V61.8158H155.605V63.5526H166.026V65.2895H167.763V70.5H166.026V68.7632H153.868V67.0263H141.711V65.2895H129.553V63.5526H117.395V61.8158H105.237V60.0789H93.0789V58.3421H80.9211V56.6053H72.2368V58.3421H73.9737V60.0789H72.2368V61.8158H73.9737V60.0789H75.7105V61.8158H77.4474V63.5526H75.7105V65.2895H77.4474V67.0263H75.7105V79.1842H73.9737V77.4474H72.2368V79.1842H73.9737V80.9211H75.7105V79.1842H77.4474V98.2895H75.7105V96.5526H73.9737V98.2895H75.7105V100.026H77.4474V98.2895H79.1842V120.868H77.4474V119.132H75.7105V120.868H77.4474V122.605H79.1842V120.868H80.9211V143.447H79.1842V141.711H77.4474V143.447H79.1842V145.184H80.9211V143.447H82.6579V162.553H80.9211V160.816H79.1842V162.553H80.9211V164.289H82.6579V162.553H84.3947V178.184H86.1316V179.921H84.3947V181.658H86.1316V183.395H84.3947V185.132H86.1316V186.868H84.3947V188.605H86.1316V186.868H87.8684V188.605H89.6053V190.342H91.3421V192.079H93.0789V193.816ZM73.9737 67.0263H72.2368V68.7632H73.9737V67.0263ZM73.9737 70.5H72.2368V72.2368H73.9737V70.5ZM73.9737 73.9737H72.2368V75.7105H73.9737V73.9737ZM75.7105 82.6579H73.9737V84.3947H75.7105V82.6579ZM75.7105 86.1316H73.9737V87.8684H75.7105V86.1316ZM75.7105 89.6053H73.9737V91.3421H75.7105V89.6053ZM75.7105 93.0789H73.9737V94.8158H75.7105V93.0789ZM77.4474 101.763H75.7105V103.5H77.4474V101.763ZM77.4474 105.237H75.7105V106.974H77.4474V105.237ZM77.4474 108.711H75.7105V110.447H77.4474V108.711ZM77.4474 112.184H75.7105V113.921H77.4474V112.184ZM77.4474 115.658H75.7105V117.395H77.4474V115.658ZM79.1842 124.342H77.4474V126.079H79.1842V124.342ZM79.1842 127.816H77.4474V129.553H79.1842V127.816ZM79.1842 131.289H77.4474V133.026H79.1842V131.289ZM79.1842 134.763H77.4474V136.5H79.1842V134.763ZM79.1842 138.237H77.4474V139.974H79.1842V138.237ZM80.9211 146.921H79.1842V148.658H80.9211V146.921ZM80.9211 150.395H79.1842V152.132H80.9211V150.395ZM80.9211 153.868H79.1842V155.605H80.9211V153.868ZM80.9211 157.342H79.1842V159.079H80.9211V157.342ZM82.6579 166.026H80.9211V167.763H82.6579V166.026ZM82.6579 169.5H80.9211V171.237H82.6579V169.5ZM82.6579 172.974H80.9211V174.711H82.6579V172.974ZM82.6579 176.447H80.9211V178.184H82.6579V176.447ZM82.6579 179.921H80.9211V181.658H82.6579V179.921Z" fill="#00F37B"/>
<path d="M94.8158 195.553H93.0789V193.816H94.8158V195.553Z" fill="#00F37B"/>
<path d="M133.026 200.763V202.5H112.184V200.763H103.5V199.026H98.2895V197.289H94.8158V195.553H96.5526V193.816H98.2895V195.553H100.026V197.289H101.763V195.553H103.5V197.289H105.237V199.026H106.974V197.289H108.711V199.026H110.447V197.289H112.184V199.026H113.921V200.763H115.658V199.026H117.395V200.763H119.132V199.026H120.868V200.763H122.605V199.026H124.342V200.763H126.079V199.026H127.816V200.763H129.553V199.026H131.289V200.763H133.026Z" fill="#00F37B"/>
<path fill-rule="evenodd" clip-rule="evenodd" d="M155.605 197.289H152.132V195.553H150.395V193.816H148.658V195.553H146.921V193.816H145.184V195.553H143.447V197.289H141.711V195.553H139.974V197.289H138.237V199.026H136.5V197.289H134.763V199.026H133.026V200.763H141.711V199.026H153.868V200.763H157.342V199.026H159.079V197.289H162.553V195.553H164.289V185.132H162.553V164.289H164.289V141.711H166.026V120.868H167.763V98.2895H169.5V75.7105H167.763V98.2895H166.026V120.868H164.289V141.711H162.553V164.289H160.816V185.132H162.553V195.553H160.816V193.816H157.342V195.553H155.605V197.289ZM157.342 197.289H159.079V195.553H157.342V197.289ZM157.342 197.289H155.605V199.026H157.342V197.289Z" fill="#00F37B"/>
<path d="M155.605 96.5528H157.342V98.2897H155.605V96.5528Z" fill="#00F37B"/>
<path d="M153.868 122.605H155.605V124.342H153.868V122.605Z" fill="#00F37B"/>
<path d="M152.132 174.711H150.395V176.448H152.132V174.711Z" fill="#00F37B"/>
<path d="M131.289 193.816H133.026V195.553H131.289V193.816Z" fill="#00F37B"/>
<path d="M131.289 193.816H129.553V195.553H127.816V192.079H131.289V193.816Z" fill="#00F37B"/>
<path d="M126.079 195.553H124.342V193.816H126.079V195.553Z" fill="#00F37B"/>
<path d="M122.605 195.553V193.816H120.868V195.553H122.605Z" fill="#00F37B"/>
<path d="M119.132 195.553V193.816H117.395V195.553H119.132Z" fill="#00F37B"/>
<path d="M115.658 195.553V193.816H113.921V195.553H115.658Z" fill="#00F37B"/>
<path d="M106.974 193.816H105.237V192.079H106.974V193.816Z" fill="#00F37B"/>
<path d="M100.026 190.342H101.763V192.079H100.026V190.342Z" fill="#00F37B"/>
<path d="M100.026 188.605V190.342H98.2894V188.605H100.026Z" fill="#00F37B"/>
<path d="M100.026 183.395H98.2894V181.658H100.026V183.395Z" fill="#00F37B"/>
<path d="M100.026 179.921V181.658H101.763V179.921H100.026Z" fill="#00F37B"/>
<path fill-rule="evenodd" clip-rule="evenodd" d="M98.2894 179.921H100.026V178.184H98.2894V176.448H100.026V174.711H98.2894V172.974H96.5526V171.237H98.2894V169.5H96.5526V167.763H98.2894V166.026H96.5526V164.29H94.8157V162.553H93.0789V160.816H91.342V162.553H93.0789V164.29H94.8157V166.026H93.0789V167.763H94.8157V169.5H93.0789V171.237H94.8157V172.974H93.0789V174.711H94.8157V176.448H93.0789V178.184H94.8157V179.921H93.0789V181.658H94.8157V179.921H96.5526V181.658H98.2894V179.921ZM96.5526 178.184H98.2894V179.921H96.5526V178.184ZM96.5526 176.448H98.2894V174.711H96.5526V172.974H94.8157V174.711H96.5526V176.448ZM96.5526 176.448H94.8157V178.184H96.5526V176.448ZM94.8157 171.237V169.5H96.5526V171.237H94.8157ZM94.8157 167.763V166.026H96.5526V167.763H94.8157Z" fill="#00F37B"/>
<path d="M100.026 183.395V185.132H101.763V183.395H100.026Z" fill="#00F37B"/>
<path fill-rule="evenodd" clip-rule="evenodd" d="M101.763 134.763H100.026V131.29H98.2894V126.079H100.026V124.342H105.237V126.079H106.974V129.553H108.71V134.763H106.974V136.5H108.71V138.237H110.447V139.974H108.71V141.711H110.447V139.974H115.658V141.711H117.395V143.448H115.658V145.184H117.395V143.448H120.868V145.184H122.605V146.921H124.342V145.184H122.605V143.448H124.342V141.711H129.553V143.448H131.289V141.711H129.553V139.974H131.289V138.237H133.026V136.5H134.763V138.237H136.5V139.974H138.237V141.711H136.5V143.448H134.763V145.184H131.289V150.395H129.553V152.132H122.605V150.395H124.342V148.658H120.868V146.921H113.921V148.658H112.184V150.395H105.237V146.921H106.974V143.448H105.237V141.711H103.5V138.237H101.763V134.763ZM103.5 127.816H101.763V129.553H103.5V127.816Z" fill="#00F37B"/>
<path fill-rule="evenodd" clip-rule="evenodd" d="M124.342 139.974H129.553V138.237H131.289V136.5H133.026V134.763H129.553V133.026H126.079V131.29H124.342V133.026H122.605V131.29H120.868V129.553H117.395V131.29H115.658V129.553H113.921V131.29H112.184V133.026H110.447V134.763H108.71V136.5H110.447V138.237H115.658V139.974H117.395V141.711H120.868V143.448H122.605V141.711H124.342V139.974ZM122.605 138.237H124.342V139.974H122.605V138.237ZM120.868 136.5V138.237H122.605V136.5H124.342V134.763H126.079V133.026H124.342V134.763H122.605V136.5H120.868ZM117.395 136.5H120.868V134.763H117.395V133.026H115.658V131.29H113.921V133.026H115.658V134.763H117.395V136.5ZM117.395 136.5H115.658V138.237H117.395V136.5Z" fill="#00F37B"/>
<path fill-rule="evenodd" clip-rule="evenodd" d="M100.026 186.869V188.605H101.763V186.869H103.5V188.605H105.237V190.342H106.974V188.605H105.237V186.869H103.5V185.132H105.237V183.395H103.5V181.658H105.237V179.921H103.5V178.184H101.763V176.448H103.5V174.711H101.763V172.974H100.026V171.237H101.763V169.5H100.026V167.763H101.763V166.026H100.026V164.29H98.2894V162.553H100.026V160.816H98.2894V162.553H96.5526V160.816H94.8157V159.079H93.0789V157.342H91.342V155.605H89.6052V153.869H91.342V152.132H89.6052V150.395H91.342V148.658H89.6052V146.921H91.342V145.184H89.6052V143.448H87.8683V141.711H89.6052V139.974H87.8683V138.237H89.6052V136.5H87.8683V134.763H89.6052V133.026H87.8683V131.29H89.6052V129.553H87.8683V127.816H89.6052V126.079H87.8683V124.342H89.6052V122.605H87.8683V120.869H89.6052V119.132H87.8683V117.395H89.6052V115.658H91.342V143.448H93.0789V155.605H94.8157V157.342H96.5526V159.079H110.447V160.816H120.868V162.553H133.026V164.29H143.447V143.448H145.184V124.342H138.237V122.605H127.816V120.869H117.395V119.132H106.974V117.395H98.2894V115.658H91.342V113.921H89.6052V112.184H87.8683V110.448H86.1315V108.711H87.8683V106.974H86.1315V105.237H84.3947V106.974H86.1315V108.711H84.3947V110.448H86.1315V112.184H84.3947V113.921H86.1315V115.658H84.3947V117.395H86.1315V119.132H84.3947V120.869H86.1315V122.605H87.8683V124.342H86.1315V126.079H87.8683V127.816H86.1315V129.553H87.8683V131.29H86.1315V133.026H87.8683V134.763H86.1315V136.5H87.8683V138.237H86.1315V139.974H87.8683V141.711H86.1315V143.448H87.8683V145.184H89.6052V146.921H87.8683V148.658H89.6052V150.395H87.8683V152.132H89.6052V153.869H87.8683V155.605H89.6052V157.342H87.8683V159.079H89.6052V160.816H87.8683V162.553H89.6052V164.29H91.342V166.026H89.6052V167.763H91.342V169.5H89.6052V171.237H91.342V172.974H89.6052V174.711H91.342V176.448H89.6052V178.184H91.342V179.921H89.6052V181.658H91.342V183.395H89.6052V185.132H91.342V186.869H93.0789V188.605H94.8157V190.342H96.5526V188.605H94.8157V186.869H93.0789V185.132H94.8157V183.395H96.5526V185.132H98.2894V186.869H100.026ZM100.026 185.132V186.869H101.763V185.132H103.5V183.395H101.763V181.658H103.5V179.921H101.763V178.184H100.026V176.448H101.763V174.711H100.026V172.974H98.2894V171.237H100.026V169.5H98.2894V167.763H100.026V166.026H98.2894V164.29H96.5526V162.553H94.8157V160.816H93.0789V159.079H91.342V157.342H89.6052V159.079H91.342V160.816H89.6052V162.553H91.342V164.29H93.0789V166.026H91.342V167.763H93.0789V169.5H91.342V171.237H93.0789V172.974H91.342V174.711H93.0789V176.448H91.342V178.184H93.0789V179.921H91.342V181.658H93.0789V183.395H91.342V185.132H93.0789V183.395H94.8157V181.658H96.5526V183.395H98.2894V185.132H100.026ZM86.1315 120.869H87.8683V119.132H86.1315V120.869ZM87.8683 115.658V117.395H86.1315V115.658H87.8683ZM87.8683 113.921V112.184H86.1315V113.921H87.8683ZM87.8683 113.921V115.658H89.6052V113.921H87.8683ZM98.2894 117.395V119.132H106.974V120.869H117.395V122.605H127.816V124.342H138.237V126.079H143.447V143.448H141.71V162.553H133.026V160.816H120.868V159.079H110.447V157.342H96.5526V155.605H94.8157V143.448H93.0789V117.395H98.2894Z" fill="#00F37B"/>
<path fill-rule="evenodd" clip-rule="evenodd" d="M86.1315 101.763H87.8683V96.5528H86.1315V94.816H84.3947V93.0791H82.6578V94.816H84.3947V96.5528H82.6578V98.2897H84.3947V100.026H86.1315V101.763ZM84.3947 98.2897V96.5528H86.1315V98.2897H84.3947Z" fill="#00F37B"/>
<path d="M86.1315 101.763V103.5H84.3947V101.763H86.1315Z" fill="#00F37B"/>
<path d="M120.868 190.342H122.605V192.079H120.868V190.342Z" fill="#00F37B"/>
<path d="M113.921 87.8686H115.658V89.6054H113.921V87.8686Z" fill="#00F37B"/>
<path d="M133.026 75.7107V73.9739H134.763V75.7107H133.026Z" fill="#00F37B"/>
<path fill-rule="evenodd" clip-rule="evenodd" d="M77.4473 58.3423H75.7104V60.0791H77.4473V61.816H79.1841V63.5528H77.4473V65.2897H79.1841V63.5528H80.921V65.2897H82.6578V67.0265H80.921V68.7633H82.6578V73.9739H84.3947V75.7107H82.6578V77.4475H84.3947V82.6581H86.1315V84.3949H84.3947V86.1318H86.1315V87.8686H84.3947V89.6054H82.6578V87.8686H80.921V86.1318H82.6578V84.3949H80.921V82.6581H82.6578V80.9212H80.921V79.1844H79.1841V77.4475H80.921V75.7107H79.1841V73.9739H80.921V72.237H79.1841V70.5002H77.4473V72.237H79.1841V73.9739H77.4473V75.7107H79.1841V77.4475H77.4473V79.1844H79.1841V80.9212H80.921V82.6581H79.1841V84.3949H80.921V86.1318H79.1841V87.8686H80.921V89.6054H79.1841V91.3423H80.921V93.0791H79.1841V94.816H80.921V96.5528H79.1841V98.2897H80.921V100.026H82.6578V101.763H80.921V103.5H82.6578V105.237H80.921V106.974H82.6578V108.711H80.921V110.448H82.6578V112.184H80.921V113.921H82.6578V115.658H80.921V117.395H82.6578V119.132H80.921V120.869H82.6578V122.605H84.3947V124.342H82.6578V126.079H84.3947V127.816H82.6578V129.553H84.3947V131.29H82.6578V133.026H84.3947V134.763H82.6578V136.5H84.3947V138.237H82.6578V139.974H84.3947V141.711H82.6578V143.448H84.3947V145.184H86.1315V146.921H84.3947V148.658H86.1315V150.395H84.3947V152.132H86.1315V153.869H84.3947V155.605H86.1315V157.342H84.3947V159.079H86.1315V160.816H84.3947V162.553H86.1315V164.29H87.8683V166.026H86.1315V167.763H87.8683V169.5H86.1315V171.237H87.8683V172.974H86.1315V174.711H87.8683V176.448H86.1315V178.184H87.8683V179.921H86.1315V181.658H87.8683V183.395H86.1315V185.132H87.8683V186.869H89.6052V188.605H91.342V190.342H93.0789V192.079H94.8157V193.816H96.5526V192.079H98.2894V193.816H100.026V195.553H101.763V193.816H103.5V195.553H105.237V197.29H106.974V195.553H108.71V197.29H110.447V195.553H112.184V197.29H113.921V199.026H115.658V197.29H117.395V199.026H119.132V197.29H120.868V199.026H122.605V197.29H124.342V199.026H126.079V197.29H127.816V199.026H129.553V197.29H131.289V199.026H133.026V197.29H134.763V195.553H136.5V197.29H138.237V195.553H139.974V193.816H141.71V195.553H143.447V193.816H145.184V192.079H146.921V193.816H148.658V192.079H150.395V193.816H152.132V195.553H153.868V193.816H152.132V192.079H153.868V190.342H155.605V192.079H157.342V190.342H159.079V188.605H157.342V190.342H155.605V188.605H153.868V186.869H155.605V185.132H153.868V183.395H155.605V164.29H157.342V166.026H159.079V164.29H160.816V162.553H159.079V164.29H157.342V141.711H159.079V143.448H160.816V141.711H162.553V139.974H160.816V141.711H159.079V120.869H160.816V98.2897H162.553V75.7107H164.289V79.1844H166.026V75.7107H167.763V72.237H166.026V70.5002H164.289V72.237H162.553V70.5002H160.816V72.237H159.079V70.5002H157.342V72.237H155.605V70.5002H153.868V68.7633H152.132V70.5002H150.395V68.7633H148.658V70.5002H146.921V68.7633H145.184V70.5002H143.447V68.7633H141.71V67.0265H139.974V68.7633H138.237V67.0265H136.5V68.7633H134.763V67.0265H133.026V68.7633H131.289V67.0265H129.553V65.2897H127.816V67.0265H126.079V65.2897H124.342V67.0265H122.605V65.2897H120.868V67.0265H119.132V65.2897H117.395V63.5528H115.658V65.2897H113.921V63.5528H112.184V65.2897H110.447V63.5528H108.71V65.2897H106.974V63.5528H105.237V61.816H103.5V63.5528H101.763V61.816H100.026V63.5528H98.2894V61.816H96.5526V63.5528H94.8157V61.816H93.0789V60.0791H91.342V61.816H89.6052V60.0791H87.8683V61.816H86.1315V60.0791H84.3947V61.816H82.6578V60.0791H80.921V58.3423H79.1841V60.0791H77.4473V58.3423ZM80.921 61.816V63.5528H82.6578V61.816H80.921ZM80.921 61.816V60.0791H79.1841V61.816H80.921ZM84.3947 61.816V63.5528H86.1315V61.816H84.3947ZM87.8683 61.816H89.6052V63.5528H87.8683V61.816ZM91.342 61.816H93.0789V63.5528H91.342V61.816ZM96.5526 63.5528H98.2894V65.2897H96.5526V63.5528ZM100.026 63.5528H101.763V65.2897H100.026V63.5528ZM103.5 63.5528H105.237V65.2897H103.5V63.5528ZM108.71 65.2897H110.447V67.0265H108.71V65.2897ZM112.184 65.2897H113.921V67.0265H112.184V65.2897ZM115.658 65.2897H117.395V67.0265H115.658V65.2897ZM120.868 67.0265H122.605V68.7633H120.868V67.0265ZM124.342 67.0265H126.079V68.7633H124.342V67.0265ZM127.816 67.0265H129.553V68.7633H127.816V67.0265ZM133.026 68.7633H134.763V70.5002H133.026V68.7633ZM136.5 68.7633H138.237V70.5002H136.5V68.7633ZM139.974 68.7633H141.71V70.5002H139.974V68.7633ZM145.184 70.5002H146.921V72.237H145.184V70.5002ZM148.658 70.5002H150.395V72.237H148.658V70.5002ZM152.132 70.5002H153.868V72.237H152.132V70.5002ZM157.342 72.237H159.079V73.9739H157.342V72.237ZM160.816 72.237H162.553V73.9739H160.816V72.237ZM164.289 72.237V73.9739H166.026V72.237H164.289ZM152.132 185.132H153.868V186.869H152.132V185.132ZM150.395 186.869V185.132H152.132V183.395H150.395V181.658H152.132V179.921H150.395V178.184H152.132V176.448H153.868V174.711H152.132V172.974H153.868V171.237H152.132V169.5H153.868V167.763H152.132V166.026H153.868V164.29H152.132V162.553H153.868V160.816H152.132V159.079H153.868V157.342H152.132V155.605H153.868V153.869H152.132V152.132H153.868V150.395H152.132V148.658H153.868V146.921H155.605V145.184H153.868V143.448H155.605V141.711H153.868V139.974H155.605V138.237H153.868V136.5H155.605V134.763H153.868V133.026H155.605V131.29H153.868V129.553H155.605V127.816H153.868V126.079H155.605V124.342H157.342V122.605H155.605V120.869H157.342V119.132H155.605V117.395H157.342V115.658H155.605V113.921H157.342V112.184H155.605V110.448H157.342V108.711H155.605V106.974H157.342V105.237H155.605V103.5H157.342V101.763H155.605V100.026H157.342V98.2897H159.079V96.5528H157.342V94.816H159.079V93.0791H157.342V91.3423H159.079V89.6054H157.342V87.8686H159.079V86.1318H157.342V84.3949H159.079V82.6581H155.605V96.5528H153.868V122.605H152.132V146.921H150.395V172.974H148.658V186.869H150.395ZM150.395 188.605V186.869H152.132V188.605H150.395ZM150.395 190.342V188.605H148.658V190.342H146.921V188.605H145.184V190.342H143.447V192.079H141.71V190.342H139.974V192.079H138.237V193.816H136.5V195.553H138.237V193.816H139.974V192.079H141.71V193.816H143.447V192.079H145.184V190.342H146.921V192.079H148.658V190.342H150.395ZM152.132 190.342V188.605H153.868V190.342H152.132ZM152.132 190.342H150.395V192.079H152.132V190.342ZM133.026 195.553H134.763V193.816H133.026V192.079H134.763V190.342H127.816V192.079H124.342V190.342H122.605V188.605H120.868V186.869H122.605V185.132H120.868V183.395H119.132V185.132H120.868V186.869H119.132V188.605H120.868V190.342H119.132V192.079H108.71V186.869H106.974V179.921H105.237V171.237H103.5V166.026H101.763V164.29H103.5V162.553H101.763V160.816H110.447V162.553H120.868V164.29H131.289V169.5H133.026V166.026H143.447V164.29H145.184V143.448H146.921V124.342H145.184V122.605H138.237V120.869H129.553V119.132H117.395V117.395H106.974V115.658H98.2894V113.921H91.342V110.448H98.2894V112.184H106.974V113.921H117.395V115.658H127.816V117.395H138.237V119.132H146.921V120.869H150.395V119.132H146.921V117.395H138.237V115.658H127.816V113.921H117.395V112.184H106.974V110.448H98.2894V108.711H89.6052V106.974H91.342V105.237H87.8683V101.763H89.6052V103.5H93.0789V101.763H94.8157V94.816H93.0789V93.0791H89.6052V91.3423H93.0789V89.6054H89.6052V91.3423H87.8683V93.0791H89.6052V94.816H93.0789V98.2897H89.6052V96.5528H87.8683V94.816H86.1315V89.6054H84.3947V91.3423H82.6578V89.6054H80.921V91.3423H82.6578V93.0791H80.921V94.816H82.6578V96.5528H80.921V98.2897H82.6578V100.026H84.3947V101.763H82.6578V103.5H84.3947V105.237H82.6578V106.974H84.3947V108.711H82.6578V110.448H84.3947V112.184H82.6578V113.921H84.3947V115.658H82.6578V117.395H84.3947V119.132H82.6578V120.869H84.3947V122.605H86.1315V124.342H84.3947V126.079H86.1315V127.816H84.3947V129.553H86.1315V131.29H84.3947V133.026H86.1315V134.763H84.3947V136.5H86.1315V138.237H84.3947V139.974H86.1315V141.711H84.3947V143.448H86.1315V145.184H87.8683V146.921H86.1315V148.658H87.8683V150.395H86.1315V152.132H87.8683V153.869H86.1315V155.605H87.8683V157.342H86.1315V159.079H87.8683V160.816H86.1315V162.553H87.8683V164.29H89.6052V166.026H87.8683V167.763H89.6052V169.5H87.8683V171.237H89.6052V172.974H87.8683V174.711H89.6052V176.448H87.8683V178.184H89.6052V179.921H87.8683V181.658H89.6052V183.395H87.8683V185.132H89.6052V186.869H91.342V188.605H93.0789V190.342H94.8157V192.079H96.5526V190.342H98.2894V192.079H100.026V193.816H101.763V192.079H103.5V193.816H105.237V195.553H106.974V193.816H108.71V195.553H110.447V193.816H112.184V195.553H113.921V197.29H115.658V195.553H117.395V197.29H119.132V195.553H120.868V197.29H122.605V195.553H124.342V197.29H126.079V195.553H127.816V197.29H129.553V195.553H131.289V197.29H133.026V195.553ZM108.71 86.1318V87.8686H113.921V84.3949H119.132V87.8686H117.395V89.6054H122.605V86.1318H120.868V82.6581H126.079V86.1318H124.342V91.3423H113.921V89.6054H103.5V87.8686H106.974V86.1318H108.71ZM108.71 86.1318V82.6581H106.974V79.1844H112.184V82.6581H110.447V86.1318H108.71ZM93.0789 86.1318V87.8686H103.5V86.1318H98.2894V82.6581H100.026V79.1844H94.8157V82.6581H96.5526V86.1318H93.0789ZM93.0789 86.1318V84.3949H87.8683V86.1318H93.0789ZM134.763 93.0791V91.3423H131.289V89.6054H133.026V86.1318H127.816V89.6054H129.553V91.3423H124.342V93.0791H134.763ZM139.974 89.6054H138.237V93.0791H134.763V94.816H145.184V96.5528H152.132V94.816H150.395V93.0791H152.132V89.6054H146.921V93.0791H148.658V94.816H145.184V93.0791H139.974V89.6054ZM139.974 89.6054H141.71V86.1318H143.447V82.6581H138.237V86.1318H139.974V89.6054ZM133.026 77.4475V75.7107H131.289V73.9739H133.026V72.237H134.763V73.9739H136.5V75.7107H134.763V77.4475H133.026ZM133.026 79.1844V77.4475H131.289V75.7107H129.553V77.4475H131.289V79.1844H133.026ZM133.026 80.9212V79.1844H134.763V80.9212H133.026ZM133.026 82.6581H131.289V80.9212H133.026V82.6581ZM133.026 82.6581H134.763V84.3949H133.026V82.6581ZM131.289 73.9739V72.237H129.553V73.9739H131.289ZM117.395 96.5528V94.816H120.868V96.5528H117.395ZM115.658 96.5528V94.816H113.921V93.0791H110.447V94.816H108.71V93.0791H106.974V94.816H108.71V101.763H106.974V106.974H113.921V101.763H110.447V94.816H113.921V96.5528H115.658ZM115.658 96.5528H117.395V103.5H120.868V96.5528H122.605V106.974H120.868V108.711H117.395V106.974H115.658V96.5528ZM126.079 98.2897V96.5528H129.553V98.2897H126.079ZM126.079 98.2897H124.342V108.711H126.079V110.448H129.553V108.711H131.289V98.2897H129.553V105.237H126.079V98.2897ZM133.026 172.974H131.289V171.237H133.026V172.974ZM127.816 171.237V172.974H120.868V171.237H127.816ZM112.184 169.5H120.868V171.237H112.184V169.5ZM112.184 169.5H105.237V167.763H112.184V169.5ZM108.71 75.7107H110.447V77.4475H108.71V75.7107ZM110.447 75.7107V73.9739H112.184V75.7107H110.447ZM110.447 72.237V73.9739H108.71V72.237H110.447ZM110.447 70.5002V72.237H112.184V70.5002H113.921V68.7633H112.184V70.5002H110.447ZM110.447 70.5002V68.7633H108.71V70.5002H110.447ZM94.8157 103.5H96.5526V91.3423H98.2894V94.816H101.763V91.3423H103.5V100.026H105.237V105.237H101.763V96.5528H98.2894V100.026H100.026V105.237H94.8157V103.5ZM146.921 101.763V103.5H145.184V101.763H146.921ZM146.921 101.763V100.026H150.395V101.763H146.921ZM150.395 105.237H146.921V103.5H150.395V105.237ZM150.395 105.237H152.132V112.184H150.395V113.921H146.921V112.184H145.184V106.974H146.921V108.711H150.395V105.237ZM141.71 106.974H143.447V112.184H138.237V106.974H139.974V101.763H138.237V100.026H139.974V98.2897H141.71V106.974ZM136.5 101.763V100.026H134.763V98.2897H133.026V110.448H131.289V112.184H136.5V106.974H134.763V101.763H136.5ZM136.5 101.763H138.237V103.5H136.5V101.763ZM159.079 80.9212H157.342V79.1844H159.079V80.9212Z" fill="#00F37B"/>
<path d="M77.4473 67.0265H79.1841V68.7633H77.4473V67.0265Z" fill="#00F37B"/>
<path d="M166.026 80.9212H164.289V82.6581H166.026V80.9212Z" fill="#00F37B"/>
<path d="M166.026 94.816H164.289V96.5528H166.026V94.816Z" fill="#00F37B"/>
<path d="M164.289 87.8686H166.026V89.6054H164.289V87.8686Z" fill="#00F37B"/>
<path d="M166.026 84.3949H164.289V86.1318H166.026V84.3949Z" fill="#00F37B"/>
<path d="M164.289 91.3423H166.026V93.0791H164.289V91.3423Z" fill="#00F37B"/>
<path d="M160.816 122.605H162.553V124.342H160.816V122.605Z" fill="#00F37B"/>
<path d="M160.816 126.079H162.553V127.816H160.816V126.079Z" fill="#00F37B"/>
<path d="M160.816 129.553H162.553V131.29H160.816V129.553Z" fill="#00F37B"/>
<path d="M162.553 136.5H160.816V138.237H162.553V136.5Z" fill="#00F37B"/>
<path d="M160.816 133.026H162.553V134.763H160.816V133.026Z" fill="#00F37B"/>
<path d="M157.342 167.763H159.079V169.5H157.342V167.763Z" fill="#00F37B"/>
<path d="M157.342 174.711H159.079V176.448H157.342V174.711Z" fill="#00F37B"/>
<path d="M159.079 171.237H157.342V172.974H159.079V171.237Z" fill="#00F37B"/>
<path d="M157.342 183.395H159.079V185.132H157.342V183.395Z" fill="#00F37B"/>
<path d="M159.079 178.184H157.342V179.921H159.079V178.184Z" fill="#00F37B"/>
<path d="M159.079 145.184H160.816V146.921H159.079V145.184Z" fill="#00F37B"/>
<path d="M159.079 148.658H160.816V150.395H159.079V148.658Z" fill="#00F37B"/>
<path d="M160.816 152.132H159.079V153.869H160.816V152.132Z" fill="#00F37B"/>
<path d="M159.079 159.079H160.816V160.816H159.079V159.079Z" fill="#00F37B"/>
<path d="M160.816 155.605H159.079V157.342H160.816V155.605Z" fill="#00F37B"/>
<path d="M162.553 100.026H164.289V101.763H162.553V100.026Z" fill="#00F37B"/>
<path d="M162.553 103.5H164.289V105.237H162.553V103.5Z" fill="#00F37B"/>
<path d="M162.553 110.448H164.289V112.184H162.553V110.448Z" fill="#00F37B"/>
<path d="M162.553 117.395H164.289V119.132H162.553V117.395Z" fill="#00F37B"/>
<path d="M164.289 106.974H162.553V108.711H164.289V106.974Z" fill="#00F37B"/>
<path d="M162.553 113.921H164.289V115.658H162.553V113.921Z" fill="#00F37B"/>
</svg>
