<svg width="218" height="360" viewBox="0 0 218 360" fill="none" xmlns="http://www.w3.org/2000/svg">
  <path d="M49.3643 333.334H62.7285V340.001H49.3643V333.334Z" fill="#343436" />
  <path d="M69.4107 333.334H76.0928V340.001H69.4107V333.334Z" fill="#343436" />
  <path d="M142.914 340.001H116.186V333.334H96.1392V340.001H82.7749V346.667H142.914V340.001Z"
    fill="#343436" />
  <path d="M156.278 333.334H149.596V340.001H156.278V333.334Z" fill="#343436" />
  <rect x="56.0464" y="153.334" width="6.68213" height="33.3333" fill="#382A1E" />
  <rect x="62.7285" y="153.334" width="6.68213" height="26.6667" fill="#4F3C2B" />
  <rect x="62.7285" y="193.334" width="6.68213" height="6.66667" fill="#4F3C2B" />
  <rect x="56.0464" y="233.334" width="6.68213" height="26.6667" fill="#4F3C2B" />
  <rect x="69.4106" y="153.334" width="6.68213" height="13.3333" fill="#4F3C2B" />
  <rect x="49.3643" y="240" width="6.68213" height="20" fill="#382A1E" />
  <rect x="49.3643" y="186.668" width="6.68213" height="53.3333" fill="#0D1114" />
  <path
    d="M62.7285 186.668H56.0464V233.335H62.7285V226.668H69.4107V233.335H76.0928V220.001H69.4107V213.335H62.7285V186.668Z"
    fill="#1A1A1A" />
  <path d="M62.7285 260.001H56.0464V293.335H62.7285V260.001Z" fill="#1A1A1A" />
  <rect x="49.3643" y="260" width="6.68213" height="6.66666" fill="#0D1114" />
  <rect x="49.3643" y="280" width="6.68213" height="6.66666" fill="#0D1114" />
  <path d="M122.868 86.668H129.55V93.3346H122.868V86.668Z" fill="#F3EBEE" />
  <path d="M122.868 100.001H116.186V93.3346H122.868V100.001Z" fill="#F3EBEE" />
  <path fill-rule="evenodd" clip-rule="evenodd"
    d="M122.868 106.668V100.001H129.55V93.3346H142.914V100.001H149.596V140.001H142.914V120.001H136.232V200.001H129.55V206.668H122.868V213.335H96.1392V206.668H89.4571V126.668H82.7749V120.001H89.4571V113.335H82.7749V120.001H76.0928V126.668H69.4106V140.001H62.7285V120.001H69.4106V100.001H82.7749V93.3346H102.821V100.001H109.503V106.668H122.868ZM122.868 106.668H129.55V113.335H122.868V106.668ZM122.868 140.001H116.186V126.668H122.868V133.335H129.55V146.668H122.868V140.001ZM129.55 180.001V186.668H122.868V180.001H129.55ZM102.821 120.001H96.1392V126.668H102.821V120.001ZM102.821 160.001H96.1392V166.668H102.821V160.001Z"
    fill="#F3EBEE" />
  <rect x="82.7749" y="206.668" width="6.68213" height="6.66666" fill="#701616" />
  <rect x="116.186" y="133.334" width="6.68214" height="6.66667" fill="#701616" />
  <rect x="122.868" y="140" width="6.68214" height="6.66667" fill="#701616" />
  <path d="M129.55 106.668H122.868V113.335H129.55V106.668Z" fill="#A32121" />
  <path d="M89.457 113.335H82.7749V120.001H89.457V113.335Z" fill="#A32121" />
  <path d="M102.821 120.001H96.1392V126.668H102.821V120.001Z" fill="#A32121" />
  <path d="M116.186 126.668H122.868V133.335H116.186V126.668Z" fill="#A32121" />
  <path d="M122.868 133.335V140.001H129.55V133.335H122.868Z" fill="#A32121" />
  <path d="M96.1392 160.001H102.821V166.668H96.1392V160.001Z" fill="#A32121" />
  <path d="M129.55 180.001H122.868V186.668H129.55V180.001Z" fill="#A32121" />
  <path d="M129.55 200.001H136.232V213.335H122.868V206.668H129.55V200.001Z" fill="#A32121" />
  <path d="M89.457 206.668H96.1392V213.335H89.457V206.668Z" fill="#A32121" />
  <path
    d="M96.1392 86.668H82.7749V93.3346H69.4107V100.001H62.7285V120.001H56.0464V140.001H62.7285V120.001H69.4107V100.001H82.7749V93.3346H96.1392V86.668Z"
    fill="#C2BCBE" />
  <path
    d="M76.0928 120.001H82.7749V126.668H89.4571V206.668H82.7749V213.335H76.0928V133.335H69.4107V126.668H76.0928V120.001Z"
    fill="#C2BCBE" />
  <path d="M142.914 120.001H136.232V140.001H142.914V120.001Z" fill="#C2BCBE" />
  <path
    d="M89.457 213.334H136.232V260.001H122.868V253.334H129.55V233.334H96.1392V260.001H82.7749V253.334H89.457V213.334Z"
    fill="#343434" />
  <path d="M82.7749 266.667H89.457V300.001H82.7749V266.667Z" fill="#343434" />
  <path d="M129.55 266.667H122.868V300.001H129.55V266.667Z" fill="#343434" />
  <path
    d="M89.457 213.334H76.0928V306.667H89.457V300.001H82.7749V266.667H89.457V260.001H82.7749V253.334H89.457V213.334Z"
    fill="#121212" />
  <path
    d="M116.186 306.667H129.55V300.001H122.868V266.667H129.55V260.001H122.868V253.334H129.55V233.334H116.186V306.667Z"
    fill="#121212" />
  <path d="M89.457 320.001H82.7749V326.667H76.0928V340.001H96.1392V326.667H89.457V320.001Z"
    fill="#121212" />
  <path d="M149.596 326.667H136.232V333.334H116.186V340.001H149.596V326.667Z" fill="#121212" />
  <path d="M116.186 320.001H122.868V326.667H116.186V320.001Z" fill="#121212" />
  <rect x="116.186" y="326.668" width="20.0464" height="6.66669" fill="#404040" />
  <rect x="129.55" y="320" width="6.68213" height="6.66666" fill="#404040" />
  <rect x="89.457" y="320" width="6.68214" height="6.66666" fill="#404040" />
  <rect x="76.0928" y="320" width="6.68214" height="6.66666" fill="#404040" />
  <path d="M109.503 73.334H116.186V80.0007H109.503V73.334Z" fill="#77F8F8" />
  <path d="M109.503 86.6673H122.868V93.334H116.186V100.001H109.503V86.6673Z" fill="#77F8F8" />
  <path d="M69.4106 140.001H62.7285V153.334H69.4106V140.001Z" fill="#77F8F8" />
  <path d="M142.914 140.001H149.596V200.001H142.914V193.334H136.232V186.667H142.914V140.001Z"
    fill="#77F8F8" />
  <path d="M142.914 200.001V206.667H136.232V200.001H142.914Z" fill="#77F8F8" />
  <path d="M89.4571 306.667H82.7749V320.001H89.4571V306.667Z" fill="#77F8F8" />
  <path d="M129.55 306.667H122.868V320.001H129.55V306.667Z" fill="#77F8F8" />
  <path
    d="M69.4106 180.001H62.7285V193.334H69.4106V200.001H62.7285V206.667H69.4106V200.001H76.0928V193.334H69.4106V180.001Z"
    fill="#77F8F8" />
  <rect x="96.1392" y="86.668" width="6.68213" height="6.66667" fill="#DE9400" />
  <rect x="102.821" y="93.334" width="6.68214" height="6.66666" fill="#DE9400" />
  <rect x="109.503" y="100" width="13.3643" height="6.66666" fill="#DE9400" />
  <rect x="122.868" y="93.334" width="6.68214" height="6.66666" fill="#DE9400" />
  <path d="M102.821 73.334H109.503V80.0007H116.186V86.6673H109.503V93.334H102.821V73.334Z"
    fill="#3CCBCB" />
  <path d="M56.0464 140.001H62.7285V153.334H56.0464V140.001Z" fill="#3CCBCB" />
  <path d="M82.7749 306.667H76.0928V313.334H82.7749V306.667Z" fill="#3CCBCB" />
  <path d="M116.186 306.667H122.868V320.001H116.186V306.667Z" fill="#3CCBCB" />
  <path d="M142.914 140.001H136.232V186.667H142.914V140.001Z" fill="#3CCBCB" />
  <path d="M76.0928 313.334H82.7749V320.001H76.0928V313.334Z" fill="#1F1F1F" />
  <path d="M89.457 313.334H96.1392V320.001H89.457V313.334Z" fill="#1F1F1F" />
  <path d="M129.55 320.001H122.868V326.667H129.55V320.001Z" fill="#1F1F1F" />
  <path d="M136.232 320.001H129.55V313.334H136.232V320.001Z" fill="#1F1F1F" />
  <path d="M136.232 320.001V326.667H142.914V320.001H136.232Z" fill="#1F1F1F" />
  <path d="M109.503 26.668V33.3346H116.186V40.0013H122.868V26.668H109.503Z" fill="#DB2C2C" />
  <path d="M122.868 46.668H116.186V53.3346H122.868V60.0013H136.232V53.3346H122.868V46.668Z"
    fill="#DB2C2C" />
  <path d="M142.914 53.3346H149.596V66.668H142.914V53.3346Z" fill="#DB2C2C" />
  <path d="M89.4571 33.334H82.7749V40.0007H76.0928V46.6673H89.4571V33.334Z" fill="#32662E" />
  <path
    d="M82.7749 53.334H76.0928V60.0007H69.4107V66.6673H62.7285V73.334H56.0464V80.0007H62.7285V73.334H69.4107V66.6673H82.7749V53.334Z"
    fill="#32662E" />
  <path
    d="M96.1392 33.334H89.457V46.6673H82.7749V66.6673H69.4106V73.334H82.7749V66.6673H96.1392V60.0007H89.457V46.6673H96.1392V33.334Z"
    fill="#254D22" />
  <path d="M56.0464 20H62.7285V26.6667H56.0464V20Z" fill="#3E8039" />
  <path d="M76.0928 33.3333V26.6667H62.7285V33.3333H76.0928Z" fill="#3E8039" />
  <path d="M76.0928 40V33.3333H82.7749V40H76.0928Z" fill="#3E8039" />
  <path d="M76.0928 46.6667V40H56.0464V33.3333H49.3643V40H56.0464V46.6667H76.0928Z" fill="#3E8039" />
  <path d="M76.0928 53.3333H82.7749V46.6667H76.0928V53.3333Z" fill="#3E8039" />
  <path d="M76.0928 53.3333H56.0464V60H76.0928V53.3333Z" fill="#3E8039" />
  <path d="M89.4571 20H82.7749V26.6667H89.4571V33.3333H96.1392V26.6667H89.4571V20Z" fill="#3E8039" />
  <path d="M102.821 46.6667H109.503V53.3333H102.821V46.6667Z" fill="#3E8039" />
  <path d="M129.55 46.6667H122.868V53.3333H129.55V46.6667Z" fill="#3E8039" />
  <path
    d="M89.457 13.334H82.7749V20.0007H89.457V26.6673H96.1392V33.334H102.821V26.6673H96.1392V20.0007H89.457V13.334Z"
    fill="#F2A54A" />
  <path d="M129.55 13.334H136.232V26.6673H129.55V13.334Z" fill="#F2A54A" />
  <path d="M129.55 26.6673V33.334H122.868V26.6673H129.55Z" fill="#F2A54A" />
  <path d="M142.914 46.6673H136.232V60.0007H142.914V46.6673Z" fill="#F2A54A" />
  <path d="M149.596 46.6673H156.278V60.0007H149.596V46.6673Z" fill="#F2A54A" />
  <rect x="102.821" y="60" width="6.68214" height="6.66666" fill="#F1C092" />
  <rect x="96.1392" y="53.334" width="6.68213" height="6.66667" fill="#F1C092" />
  <rect x="109.503" y="60" width="6.68213" height="6.66666" fill="#F1C092" />
  <path d="M96.1392 33.334H109.503V40.0007H96.1392V33.334Z" fill="#F5E8D7" />
  <path d="M136.232 33.334H122.868V40.0007H116.186V46.6673H122.868V40.0007H136.232V33.334Z"
    fill="#F5E8D7" />
  <path d="M96.1392 40H109.503V46.6667H96.1392V40Z" fill="black" />
  <path d="M109.503 46.6667H116.186V53.3333H109.503V46.6667Z" fill="black" />
  <path d="M116.186 66.6667V73.3333H136.232V66.6667H116.186Z" fill="black" />
  <path d="M122.868 40H136.232V46.6667H122.868V40Z" fill="black" />
  <path d="M109.503 26.668H102.821V33.3346H109.503V46.668H116.186V33.3346H109.503V26.668Z"
    fill="#A92223" />
  <path fill-rule="evenodd" clip-rule="evenodd"
    d="M89.457 46.668V60.0013H96.1392V66.668H102.821V73.3346H116.186V80.0013H142.914V73.3346H116.186V66.668H142.914V60.0013H122.868V53.3346H102.821V46.668H89.457ZM102.821 60.0013H116.186V66.668H102.821V60.0013ZM102.821 60.0013V53.3346H96.1392V60.0013H102.821Z"
    fill="#A92223" />
  <g style="mix-blend-mode:color">
    <path fill-rule="evenodd" clip-rule="evenodd"
      d="M89.4571 13.334H82.7749V26.6673H89.4571V33.334H76.0928V26.6673H62.7285V20.0007H56.0464V26.6673H62.7285V33.334H76.0928V40.0006H56.0464V33.334H49.3643V40.0006H56.0464V46.6673H76.0928V53.334H56.0464V60.0006H69.4107V66.6673H62.7285V73.334H56.0464V80.0006H62.7285V73.334H82.7749V66.6673H102.821V86.6673H82.7749V93.334H69.4107V100.001H62.7285V120.001H56.0464V186.667H49.3643V266.667H56.0464V280.001H49.3643V286.667H56.0464V293.334H62.7285V226.667H69.4107V233.334H76.0928V333.334H69.4107V340.001H82.7749V346.667H142.914V340.001H156.278V333.334H149.596V326.667H142.914V320.001H136.232V313.334H129.55V260.001H136.232V206.667H142.914V200.001H149.596V100.001H142.914V93.334H129.55V86.6673H116.186V80.0006H142.914V73.334H136.232V66.6673H149.596V60.0006H156.278V46.6673H149.596V53.334H142.914V46.6673H136.232V33.334H129.55V26.6673H136.232V13.334H129.55V26.6673H96.1392V20.0007H89.4571V13.334ZM136.232 46.6673V53.334H129.55V46.6673H136.232ZM142.914 200.001V193.334H136.232V200.001H142.914ZM116.186 233.334H96.1392V260.001H89.4571V313.334H96.1392V333.334H116.186V233.334ZM69.4107 153.334V133.334H76.0928V153.334H69.4107ZM62.7285 206.667H69.4107V200.001H76.0928V220.001H69.4107V213.334H62.7285V206.667ZM69.4107 166.667H76.0928V193.334H69.4107V166.667Z"
      fill="#0A8F4F" />
    <path d="M62.7285 333.334V340.001H49.3643V333.334H62.7285Z" fill="#0A8F4F" />
  </g>
</svg>
  