<svg width="256" height="256" viewBox="0 0 256 256" fill="none" xmlns="http://www.w3.org/2000/svg">
<path d="M133 11V12H132V17H131V23H130.01V22H128.01V20H127.01V19H122V20H121V21H119V22H117.01V21H116.01V20H113V21H112V22H111V23H110V24H105V25H104V28H103V29H102V30H101V33.01H102V34.01H103V37.01H104V38.01H105V39.01H106V40.01H107V41.01H108V57.01H109.01V40H107.01V39H106.01V38H105.01V37H104.01V33H102.01V30.01H103.01V29.01H105.01V25.01H111.01V23.01H113.01V21.01H116V22.01H117V23.01H119.01V22.01H122.01V20.01H127V23.01H130V24.01H132.01V17.01H133.01V12.01H136V15.01H137V20.01H138V23.01H141V25.01H142.01V15.01H147V23.01H150V26.01H153V27.01H154.01V17.01H155.01V16.01H160V29.01H162V30.01H163V31.01H165V33.01H166V35.01H170V36.01H172V40.01H173V44.01H174V49H171V53H169V55H168V56H162V58H160V59H157V60H155V61H153V62H149V63H148V65H145V66H143V67H141V68H135.01V67H130.01V66H123V67H122V68H121V69H119V70H117V71H115.01V70H114.01V69H113.01V68H111.01V60H110V68.01H111V69.01H113V70.01H114V71.01H115V72.01H117.01V71.01H119.01V70.01H121.01V69.01H122.01V68.01H123.01V67.01H130V68.01H135V69.01H141.01V68.01H143.01V67.01H145.01V66.01H148.01V65.01H149.01V63.01H153.01V62.01H155.01V61.01H157.01V60.01H160.01V59.01H162.01V58.01H163.01V57.01H168.01V56.01H169.01V55.01H170.01V54.01H171.01V53.01H172.01V50.01H175.01V44H174.01V40H173.01V36H172.01V35H170.01V34H167.01V33H166.01V31H165.01V30H163.01V29H162.01V28H161.01V16H160.01V15H155V16H154V17H153V25H151.01V23H150.01V22H148.01V15H147.01V14H142V15H141V22H139.01V20H138.01V15H137.01V12H136.01V11H133Z" fill="#11ED83"/>
</svg>
