<svg width="256" height="256" viewBox="0 0 256 256" fill="none" xmlns="http://www.w3.org/2000/svg">
<path d="M133 11V12H132V17H131V23H130.01V22H128.01V20H127.01V19H122V20H121V21H119V22H117.01V21H116.01V20H113V21H112V22H111V23H110V24H105V25H104V28H103V29H102V30H101V33.01H102V34.01H103V37.01H104V38.01H105V39.01H106V40.01H107V41.01H108V57.01H109.01V40H107.01V39H106.01V38H105.01V37H104.01V33H102.01V30.01H103.01V29.01H105.01V25.01H111.01V23.01H113.01V21.01H116V22.01H117V23.01H119.01V22.01H122.01V20.01H127V23.01H130V24.01H132.01V17.01H133.01V12.01H136V15.01H137V20.01H138V23.01H141V25.01H142.01V15.01H147V23.01H150V26.01H153V27.01H154.01V17.01H155.01V16.01H160V29.01H162V30.01H163V31.01H165V33.01H166V35.01H170V36.01H172V40.01H173V44.01H174V49H171V53H169V55H168V56H162V58H160V59H157V60H155V61H153V62H149V63H148V65H145V66H143V67H141V68H135.01V67H130.01V66H123V67H122V68H121V69H119V70H117V71H115.01V70H114.01V69H113.01V68H111.01V60H110V68.01H111V69.01H113V70.01H114V71.01H115V72.01H117.01V71.01H119.01V70.01H121.01V69.01H122.01V68.01H123.01V67.01H130V68.01H135V69.01H141.01V68.01H143.01V67.01H145.01V66.01H148.01V65.01H149.01V63.01H153.01V62.01H155.01V61.01H157.01V60.01H160.01V59.01H162.01V58.01H163.01V57.01H168.01V56.01H169.01V55.01H170.01V54.01H171.01V53.01H172.01V50.01H175.01V44H174.01V40H173.01V36H172.01V35H170.01V34H167.01V33H166.01V31H165.01V30H163.01V29H162.01V28H161.01V16H160.01V15H155V16H154V17H153V25H151.01V23H150.01V22H148.01V15H147.01V14H142V15H141V22H139.01V20H138.01V15H137.01V12H136.01V11H133Z" fill="#11ED83"/>
<path d="M70.0061 95.995H74.0161V96.995H75.0161V101.005H74.0161V102.005H70.0061V101.005H69.0061V96.995H70.0061V95.995Z" fill="#172217"/>
<path fill-rule="evenodd" clip-rule="evenodd" d="M70.0061 94.995H74.0161V95.995H75.0161V96.995H76.0161V101.005H75.0161V102.005H74.0161V103.005H70.0061V102.005H69.0061V101.005H68.0061V96.995H69.0061V95.995H70.0061V94.995ZM74.0061 101.995V100.995H75.0061V97.005H74.0061V96.005H70.0161V97.005H69.0161V100.995H70.0161V101.995H74.0061Z" fill="#0CA85D"/>
<path d="M120 115.002H124.01V116.002H125.01V120.012H124.01V121.012H120V120.012H119V116.002H120V115.002Z" fill="#172217"/>
<path fill-rule="evenodd" clip-rule="evenodd" d="M120 114.002H124.01V115.002H125.01V116.002H126.01V120.012H125.01V121.012H124.01V122.012H120V121.012H119V120.012H118V116.002H119V115.002H120V114.002ZM124 121.002V120.002H125V116.012H124V115.012H120.01V116.012H119.01V120.002H120.01V121.002H124Z" fill="#0CA85D"/>
<path d="M117 181H121.01V182H122.01V186.01H121.01V187.01H117V186.01H116V182H117V181Z" fill="#172217"/>
<path fill-rule="evenodd" clip-rule="evenodd" d="M117 180H121.01V181H122.01V182H123.01V186.01H122.01V187.01H121.01V188.01H117V187.01H116V186.01H115V182H116V181H117V180ZM121 187V186H122V182.01H121V181.01H117.01V182.01H116.01V186H117.01V187H121Z" fill="#0CA85D"/>
<path d="M191.009 202.005H195.019V203.005H196.019V207.015H195.019V208.015H191.009V207.015H190.009V203.005H191.009V202.005Z" fill="#172217"/>
<path fill-rule="evenodd" clip-rule="evenodd" d="M191.009 201.005H195.019V202.005H196.019V203.005H197.019V207.015H196.019V208.015H195.019V209.015H191.009V208.015H190.009V207.015H189.009V203.005H190.009V202.005H191.009V201.005ZM195.009 208.005V207.005H196.009V203.015H195.009V202.015H191.019V203.015H190.019V207.005H191.019V208.005H195.009Z" fill="#0CA85D"/>
<path d="M188.004 133.999H192.014V134.999H193.014V139.009H192.014V140.009H188.004V139.009H187.004V134.999H188.004V133.999Z" fill="#172217"/>
<path fill-rule="evenodd" clip-rule="evenodd" d="M188.004 132.999H192.014V133.999H193.014V134.999H194.014V139.009H193.014V140.009H192.014V141.009H188.004V140.009H187.004V139.009H186.004V134.999H187.004V133.999H188.004V132.999ZM192.004 139.999V138.999H193.004V135.009H192.004V134.009H188.014V135.009H187.014V138.999H188.014V139.999H192.004Z" fill="#0CA85D"/>
</svg>
