<svg width="256" height="256" viewBox="0 0 256 256" fill="none" xmlns="http://www.w3.org/2000/svg">
<path d="M70.0061 95.995H74.0161V96.995H75.0161V101.005H74.0161V102.005H70.0061V101.005H69.0061V96.995H70.0061V95.995Z" fill="#172217"/>
<path fill-rule="evenodd" clip-rule="evenodd" d="M70.0061 94.995H74.0161V95.995H75.0161V96.995H76.0161V101.005H75.0161V102.005H74.0161V103.005H70.0061V102.005H69.0061V101.005H68.0061V96.995H69.0061V95.995H70.0061V94.995ZM74.0061 101.995V100.995H75.0061V97.005H74.0061V96.005H70.0161V97.005H69.0161V100.995H70.0161V101.995H74.0061Z" fill="#0CA85D"/>
<path d="M120 115.002H124.01V116.002H125.01V120.012H124.01V121.012H120V120.012H119V116.002H120V115.002Z" fill="#172217"/>
<path fill-rule="evenodd" clip-rule="evenodd" d="M120 114.002H124.01V115.002H125.01V116.002H126.01V120.012H125.01V121.012H124.01V122.012H120V121.012H119V120.012H118V116.002H119V115.002H120V114.002ZM124 121.002V120.002H125V116.012H124V115.012H120.01V116.012H119.01V120.002H120.01V121.002H124Z" fill="#0CA85D"/>
<path d="M117 181H121.01V182H122.01V186.01H121.01V187.01H117V186.01H116V182H117V181Z" fill="#172217"/>
<path fill-rule="evenodd" clip-rule="evenodd" d="M117 180H121.01V181H122.01V182H123.01V186.01H122.01V187.01H121.01V188.01H117V187.01H116V186.01H115V182H116V181H117V180ZM121 187V186H122V182.01H121V181.01H117.01V182.01H116.01V186H117.01V187H121Z" fill="#0CA85D"/>
<path d="M191.009 202.005H195.019V203.005H196.019V207.015H195.019V208.015H191.009V207.015H190.009V203.005H191.009V202.005Z" fill="#172217"/>
<path fill-rule="evenodd" clip-rule="evenodd" d="M191.009 201.005H195.019V202.005H196.019V203.005H197.019V207.015H196.019V208.015H195.019V209.015H191.009V208.015H190.009V207.015H189.009V203.005H190.009V202.005H191.009V201.005ZM195.009 208.005V207.005H196.009V203.015H195.009V202.015H191.019V203.015H190.019V207.005H191.019V208.005H195.009Z" fill="#0CA85D"/>
<path d="M188.004 133.999H192.014V134.999H193.014V139.009H192.014V140.009H188.004V139.009H187.004V134.999H188.004V133.999Z" fill="#172217"/>
<path fill-rule="evenodd" clip-rule="evenodd" d="M188.004 132.999H192.014V133.999H193.014V134.999H194.014V139.009H193.014V140.009H192.014V141.009H188.004V140.009H187.004V139.009H186.004V134.999H187.004V133.999H188.004V132.999ZM192.004 139.999V138.999H193.004V135.009H192.004V134.009H188.014V135.009H187.014V138.999H188.014V139.999H192.004Z" fill="#0CA85D"/>
<path d="M169 47V48.01H171.01V47H169Z" fill="#155432"/>
<path d="M111 50H112.01V51.01H111V50Z" fill="#155432"/>
<path d="M112.01 52H111V53.01H112.01V52Z" fill="#155432"/>
<path d="M109 57H110.01V60.01H109V57Z" fill="#155432"/>
<path d="M132.01 62H131V63.01H132.01V62Z" fill="#155432"/>
<path d="M143 62H144.01V65.01H143V62Z" fill="#155432"/>
<path d="M146.01 62H145V63.01H146.01V62Z" fill="#155432"/>
<path d="M114.01 64H113V65.01H114.01V64Z" fill="#155432"/>
<path d="M121 64H122.01V65.01H121V64Z" fill="#155432"/>
<path d="M124.01 64H123V65.01H124.01V64Z" fill="#155432"/>
<path d="M131 64H132.01V65.01H131V64Z" fill="#155432"/>
<path d="M134.01 64H133V65.01H134.01V64Z" fill="#155432"/>
<path d="M137 64H138.01V67.01H137V64Z" fill="#155432"/>
<path d="M140.01 64H139V65.01H140.01V64Z" fill="#155432"/>
<path d="M141 64H142.01V65.01H141V64Z" fill="#155432"/>
<path d="M149.01 65H148V67.01H149.01V65Z" fill="#155432"/>
<path d="M113 66H114.01V67.01H113V66Z" fill="#155432"/>
<path d="M116.01 66H115V67.01H116.01V66Z" fill="#155432"/>
<path d="M117 66H118.01V67.01H117V66Z" fill="#155432"/>
<path d="M120.01 66H119V67.01H120.01V66Z" fill="#155432"/>
<path d="M140.01 66H139V67.01H140.01V66Z" fill="#155432"/>
<path d="M147.01 67H146V68H145V69.01H146.01V68.01H147.01V67Z" fill="#155432"/>
<path d="M115 68H116.01V69.01H115V68Z" fill="#155432"/>
<path d="M118.01 68H117V69.01H118.01V68Z" fill="#155432"/>
<path d="M128 68H129.01V69.01H128V68Z" fill="#155432"/>
<path d="M135 70H136.01V71.01H135V70Z" fill="#155432"/>
<path d="M142.01 70H141V71.01H142.01V70Z" fill="#155432"/>
<path d="M113 72H114.01V73.01H113V72Z" fill="#155432"/>
<path d="M120 20H121.01V21.01H120V20Z" fill="#172217"/>
<path fill-rule="evenodd" clip-rule="evenodd" d="M147 62H148.01V65.01H144.01V66.01H143.01V67H145V66H146.01V68.01H144.01V69.01H142.01V70.01H138V69H142V68H143V67.01H141.01V68.01H135.01V70.01H134V69.01H129V68.01H124.01V69.01H123.01V70.01H122.01V71.01H120.01V72.01H119V70.01H117V69H118V68H120V67H121V66H122.01V68H123V67H130V65H131.01V66H136.01V67H140V66H143V65H144V64H147V62ZM121 69.01V70H119.01V69.01H121ZM122 69V68.01H121.01V69H122ZM135 68V67.01H130.01V68H135Z" fill="#172217"/>
<path d="M123 65H129.01V66.01H123V65Z" fill="#172217"/>
<path d="M150.01 66H149V67.01H150.01V66Z" fill="#172217"/>
<path d="M113 67H114.01V68H115.01V69H116.01V71.01H115.01V72H118.01V73.01H114V72.01H113V71H115V70.01H114V69.01H113V67Z" fill="#172217"/>
<path d="M148.01 67H147V68.01H148.01V67Z" fill="#172217"/>
</svg>
