<svg width="256" height="256" viewBox="0 0 256 256" fill="none" xmlns="http://www.w3.org/2000/svg">
<path d="M160.011 130.003H159.001V131.013H160.011V130.003Z" fill="#172217"/>
<path d="M160.011 140.003H159.001V142.013H160.001V144.013H161.001V146.013H162.011V143.003H161.011V141.003H160.011V140.003Z" fill="#172217"/>
<path d="M157.001 142.003H158.011V143.013H157.001V142.003Z" fill="#172217"/>
<path d="M160.011 145.003H159.001V147.013H160.001V149.013H161.001V150.013H162.001V151.013H163.001V153.013H164.001V154.013H165.001V156.013H166.011V153.003H165.011V152.003H164.011V151.003H163.011V149.003H161.011V147.003H160.011V145.003Z" fill="#172217"/>
<path d="M164.011 147.003H163.001V148.013H164.001V149.013H165.001V150.013H166.011V149.003H165.011V148.003H164.011V147.003Z" fill="#172217"/>
<path d="M167.011 151.003H166.001V152.013H167.001V153.013H168.011V152.003H167.011V151.003Z" fill="#172217"/>
<path fill-rule="evenodd" clip-rule="evenodd" d="M168.011 156.003H167.001V158.013H168.001V160.013H169.001V161.013H170.001V164.013H171.001V166.013H172.001V167.013H173.001V168.013H174.001V169.013H175.001V171.013H177.011V170.013H179.011V169.003H178.011V167.003H177.011V166.003H176.011V165.003H175.011V164.003H174.011V163.003H173.011V160.003H172.011V159.003H171.001V160.003H170.011V159.003H169.011V157.003H168.011V156.003ZM177.001 170.003V168.013H176.011V170.003H177.001ZM176.001 168.003V167.013H175.011V168.003H176.001ZM175.001 167.003V166.013H174.011V167.003H175.001ZM174.001 166.003V165.013H173.011V166.003H174.001ZM173.001 165.003V163.013H172.011V165.003H173.001ZM172.001 163.003V160.013H171.011V163.003H172.001Z" fill="#172217"/>
<path d="M170.001 156.003H171.011V158.013H170.001V156.003Z" fill="#172217"/>
<path d="M152.011 190.003H151.001V191.013H152.011V190.003Z" fill="#172217"/>
<path d="M123.001 215.003H124.011V216.013H123.001V215.003Z" fill="#172217"/>
<path d="M155.001 140.003V141.003H154.001V142.003H152.001V143.003H150.001V144.003H148.001V145.003H145.001V146.003H143.001V147.003H140.001V148.003H138.001V149.003H136.001V150.003H134.001V151.003H132.001V152.003H130.001V153.013H132.011V152.013H134.011V151.013H136.011V150.013H138.011V149.013H140.011V148.013H143.011V147.013H145.011V146.013H148.011V145.013H150.011V144.013H152.011V143.013H154.011V142.013H155.011V141.013H158.001V142.013H159.001V144.013H160.001V146.013H161.001V148.013H162.001V149.013H163.001V150.013H164.001V152.013H165.001V153.013H166.001V155.013H167.001V156.013H168.001V157.013H169.001V159.013H170.001V160.013H171.001V163.013H172.001V165.013H173.001V166.013H174.001V167.013H175.001V168.013H176.001V170.013H177.001V171.013H178.001V172.003H176.001V173.003H173.001V174.003H172.001V175.003H171.001V176.003H170.001V177.003H168.001V178.003H167.001V179.003H165.001V180.003H164.001V181.003H162.001V182.003H160.001V183.003H159.001V184.003H157.001V185.003H156.001V186.003H154.001V187.003H152.001V188.003H151.001V189.003H149.001V190.003H148.001V191.003H146.001V192.003H144.001V193.013H146.001V194.013H151.001V198.003H150.001V200.013H151.001V203.003H150.001V205.003H148.001V206.003H143.001V209.003H142.001V217.003H140.001V220.003H139.001V221.003H136.001V223.003H132.011V219.003H131.011V218.003H128.011V217.003H125.011V216.003H121.001V218.003H120.001V219.003H119.001V220.003H118.001V221.003H117.001V222.003H116.001V223.003H114.001V224.003H106.011V223.003H102.011V222.003H99.0109V221.003H97.0109V220.003H95.0109V219.003H94.0109V218.003H92.0109V217.003H89.0109V216.003H87.0109V215.003H84.0109V214.003H80.0109V213.003H79.0009V214.003H74.0009V215.003H73.0009V216.003H65.0109V214.003H64.0109V213.003H63.0109V211.003H62.0109V208.003H61.0109V203.003H60.0109V199.003H59.0109V193.013H60.0109V191.013H61.0109V188.013H62.0109V185.013H63.0109V182.013H64.0109V180.013H65.0109V178.013H66.0109V176.013H67.0109V174.013H68.0109V172.013H69.0109V171.013H70.0109V170.003H68.0009V172.003H67.0009V174.003H66.0009V176.003H65.0009V178.003H64.0009V180.003H63.0009V182.003H62.0009V185.003H61.0009V188.003H60.0009V191.003H59.0009V193.003H58.0009V199.013H59.0009V203.013H60.0009V208.013H61.0009V211.013H62.0009V213.013H63.0009V214.013H64.0009V217.013H74.0109V215.013H79.0109V214.013H80.0009V215.013H84.0009V216.013H87.0009V217.013H89.0009V218.013H92.0009V219.013H94.0009V220.013H95.0009V221.013H97.0009V222.013H99.0009V223.013H102.001V224.013H106.001V225.013H114.011V224.013H116.011V223.013H117.011V222.013H118.011V221.013H119.011V220.013H120.011V219.013H121.011V218.013H122.011V217.013H125.001V218.013H128.001V219.013H131.001V223.013H132.001V224.013H136.011V223.013H137.011V222.013H139.011V221.013H140.011V220.013H141.011V218.013H142.011V217.013H143.011V209.013H144.011V207.013H148.011V206.013H150.011V205.013H151.011V203.013H152.011V200.003H151.011V198.013H152.011V194.003H151.011V193.003H146.011V192.013H148.011V191.013H149.011V190.013H151.011V189.013H152.011V188.013H154.011V187.013H156.011V186.013H157.011V185.013H159.011V184.013H160.011V183.013H162.011V182.013H164.011V181.013H165.011V180.013H167.011V179.013H168.011V178.013H170.011V177.013H171.011V176.013H172.011V175.013H173.011V174.013H176.011V173.013H179.011V171.003H178.011V170.003H177.011V168.003H176.011V167.003H175.011V166.003H174.011V165.003H173.011V163.003H172.011V160.003H171.011V159.003H170.011V157.003H169.011V156.003H168.011V155.003H167.011V153.003H166.011V152.003H165.011V150.003H164.011V149.003H163.011V148.003H162.011V146.003H161.011V144.003H160.011V142.003H159.011V140.003H155.001Z" fill="#11ED83"/>
<path d="M126.001 153.003V154.003H124.001V155.003H121.001V156.003H119.001V157.003H116.001V158.003H113.001V159.003H112.001V160.003H108.001V161.003H105.001V162.003H103.001V163.003H100.001V164.003H97.0009V165.003H95.0009V166.003H92.0009V167.003H88.0009V168.013H92.0109V167.013H95.0109V166.013H97.0109V165.013H100.011V164.013H103.011V163.013H105.011V162.013H108.011V161.013H113.011V159.013H116.011V158.013H119.011V157.013H121.011V156.013H124.011V155.013H126.011V154.013H128.011V153.003H126.001Z" fill="#11ED83"/>
<path d="M77.0109 161.003H74.0009V162.003H73.0009V163.003H72.0009V165.003H71.0009V167.013H72.0109V165.013H73.0109V163.013H74.0109V162.013H77.0009V163.013H80.0009V164.013H82.0009V165.013H85.0109V164.003H82.0109V163.003H80.0109V162.003H77.0109V161.003Z" fill="#11ED83"/>
<path d="M70.0061 95.995H74.0161V96.995H75.0161V101.005H74.0161V102.005H70.0061V101.005H69.0061V96.995H70.0061V95.995Z" fill="#172217"/>
<path fill-rule="evenodd" clip-rule="evenodd" d="M70.0061 94.995H74.0161V95.995H75.0161V96.995H76.0161V101.005H75.0161V102.005H74.0161V103.005H70.0061V102.005H69.0061V101.005H68.0061V96.995H69.0061V95.995H70.0061V94.995ZM74.0061 101.995V100.995H75.0061V97.005H74.0061V96.005H70.0161V97.005H69.0161V100.995H70.0161V101.995H74.0061Z" fill="#0CA85D"/>
<path d="M120 115.002H124.01V116.002H125.01V120.012H124.01V121.012H120V120.012H119V116.002H120V115.002Z" fill="#172217"/>
<path fill-rule="evenodd" clip-rule="evenodd" d="M120 114.002H124.01V115.002H125.01V116.002H126.01V120.012H125.01V121.012H124.01V122.012H120V121.012H119V120.012H118V116.002H119V115.002H120V114.002ZM124 121.002V120.002H125V116.012H124V115.012H120.01V116.012H119.01V120.002H120.01V121.002H124Z" fill="#0CA85D"/>
<path d="M191.009 202.005H195.019V203.005H196.019V207.015H195.019V208.015H191.009V207.015H190.009V203.005H191.009V202.005Z" fill="#172217"/>
<path fill-rule="evenodd" clip-rule="evenodd" d="M191.009 201.005H195.019V202.005H196.019V203.005H197.019V207.015H196.019V208.015H195.019V209.015H191.009V208.015H190.009V207.015H189.009V203.005H190.009V202.005H191.009V201.005ZM195.009 208.005V207.005H196.009V203.015H195.009V202.015H191.019V203.015H190.019V207.005H191.019V208.005H195.009Z" fill="#0CA85D"/>
<path d="M188.004 133.999H192.014V134.999H193.014V139.009H192.014V140.009H188.004V139.009H187.004V134.999H188.004V133.999Z" fill="#172217"/>
<path fill-rule="evenodd" clip-rule="evenodd" d="M188.004 132.999H192.014V133.999H193.014V134.999H194.014V139.009H193.014V140.009H192.014V141.009H188.004V140.009H187.004V139.009H186.004V134.999H187.004V133.999H188.004V132.999ZM192.004 139.999V138.999H193.004V135.009H192.004V134.009H188.014V135.009H187.014V138.999H188.014V139.999H192.004Z" fill="#0CA85D"/>
<path d="M136 42.9998H140.01V43.9998H141.01V48.0098H140.01V49.0098H136V48.0098H135V43.9998H136V42.9998Z" fill="#172217"/>
<path fill-rule="evenodd" clip-rule="evenodd" d="M136 41.9998H140.01V42.9998H141.01V43.9998H142.01V48.0098H141.01V49.0098H140.01V50.0098H136V49.0098H135V48.0098H134V43.9998H135V42.9998H136V41.9998ZM140 48.9998V47.9998H141V44.0098H140V43.0098H136.01V44.0098H135.01V47.9998H136.01V48.9998H140Z" fill="#0CA85D"/>
</svg>
