<svg width="256" height="256" viewBox="0 0 256 256" fill="none" xmlns="http://www.w3.org/2000/svg">
<path d="M155.001 140.003V141.003H154.001V142.003H152.001V143.003H150.001V144.003H148.001V145.003H145.001V146.003H143.001V147.003H140.001V148.003H138.001V149.003H136.001V150.003H134.001V151.003H132.001V152.003H130.001V153.013H132.011V152.013H134.011V151.013H136.011V150.013H138.011V149.013H140.011V148.013H143.011V147.013H145.011V146.013H148.011V145.013H150.011V144.013H152.011V143.013H154.011V142.013H155.011V141.013H158.001V142.013H159.001V144.013H160.001V146.013H161.001V148.013H162.001V149.013H163.001V150.013H164.001V152.013H165.001V153.013H166.001V155.013H167.001V156.013H168.001V157.013H169.001V159.013H170.001V160.013H171.001V163.013H172.001V165.013H173.001V166.013H174.001V167.013H175.001V168.013H176.001V170.013H177.001V171.013H178.001V172.003H176.001V173.003H173.001V174.003H172.001V175.003H171.001V176.003H170.001V177.003H168.001V178.003H167.001V179.003H165.001V180.003H164.001V181.003H162.001V182.003H160.001V183.003H159.001V184.003H157.001V185.003H156.001V186.003H154.001V187.003H152.001V188.003H151.001V189.003H149.001V190.003H148.001V191.003H146.001V192.003H144.001V193.013H146.001V194.013H151.001V198.003H150.001V200.013H151.001V203.003H150.001V205.003H148.001V206.003H143.001V209.003H142.001V217.003H140.001V220.003H139.001V221.003H136.001V223.003H132.011V219.003H131.011V218.003H128.011V217.003H125.011V216.003H121.001V218.003H120.001V219.003H119.001V220.003H118.001V221.003H117.001V222.003H116.001V223.003H114.001V224.003H106.011V223.003H102.011V222.003H99.0109V221.003H97.0109V220.003H95.0109V219.003H94.0109V218.003H92.0109V217.003H89.0109V216.003H87.0109V215.003H84.0109V214.003H80.0109V213.003H79.0009V214.003H74.0009V215.003H73.0009V216.003H65.0109V214.003H64.0109V213.003H63.0109V211.003H62.0109V208.003H61.0109V203.003H60.0109V199.003H59.0109V193.013H60.0109V191.013H61.0109V188.013H62.0109V185.013H63.0109V182.013H64.0109V180.013H65.0109V178.013H66.0109V176.013H67.0109V174.013H68.0109V172.013H69.0109V171.013H70.0109V170.003H68.0009V172.003H67.0009V174.003H66.0009V176.003H65.0009V178.003H64.0009V180.003H63.0009V182.003H62.0009V185.003H61.0009V188.003H60.0009V191.003H59.0009V193.003H58.0009V199.013H59.0009V203.013H60.0009V208.013H61.0009V211.013H62.0009V213.013H63.0009V214.013H64.0009V217.013H74.0109V215.013H79.0109V214.013H80.0009V215.013H84.0009V216.013H87.0009V217.013H89.0009V218.013H92.0009V219.013H94.0009V220.013H95.0009V221.013H97.0009V222.013H99.0009V223.013H102.001V224.013H106.001V225.013H114.011V224.013H116.011V223.013H117.011V222.013H118.011V221.013H119.011V220.013H120.011V219.013H121.011V218.013H122.011V217.013H125.001V218.013H128.001V219.013H131.001V223.013H132.001V224.013H136.011V223.013H137.011V222.013H139.011V221.013H140.011V220.013H141.011V218.013H142.011V217.013H143.011V209.013H144.011V207.013H148.011V206.013H150.011V205.013H151.011V203.013H152.011V200.003H151.011V198.013H152.011V194.003H151.011V193.003H146.011V192.013H148.011V191.013H149.011V190.013H151.011V189.013H152.011V188.013H154.011V187.013H156.011V186.013H157.011V185.013H159.011V184.013H160.011V183.013H162.011V182.013H164.011V181.013H165.011V180.013H167.011V179.013H168.011V178.013H170.011V177.013H171.011V176.013H172.011V175.013H173.011V174.013H176.011V173.013H179.011V171.003H178.011V170.003H177.011V168.003H176.011V167.003H175.011V166.003H174.011V165.003H173.011V163.003H172.011V160.003H171.011V159.003H170.011V157.003H169.011V156.003H168.011V155.003H167.011V153.003H166.011V152.003H165.011V150.003H164.011V149.003H163.011V148.003H162.011V146.003H161.011V144.003H160.011V142.003H159.011V140.003H155.001Z" fill="#11ED83"/>
<path d="M126.001 153.003V154.003H124.001V155.003H121.001V156.003H119.001V157.003H116.001V158.003H113.001V159.003H112.001V160.003H108.001V161.003H105.001V162.003H103.001V163.003H100.001V164.003H97.0009V165.003H95.0009V166.003H92.0009V167.003H88.0009V168.013H92.0109V167.013H95.0109V166.013H97.0109V165.013H100.011V164.013H103.011V163.013H105.011V162.013H108.011V161.013H113.011V159.013H116.011V158.013H119.011V157.013H121.011V156.013H124.011V155.013H126.011V154.013H128.011V153.003H126.001Z" fill="#11ED83"/>
<path d="M77.0109 161.003H74.0009V162.003H73.0009V163.003H72.0009V165.003H71.0009V167.013H72.0109V165.013H73.0109V163.013H74.0109V162.013H77.0009V163.013H80.0009V164.013H82.0009V165.013H85.0109V164.003H82.0109V163.003H80.0109V162.003H77.0109V161.003Z" fill="#11ED83"/>
</svg>
