<svg width="256" height="256" viewBox="0 0 256 256" fill="none" xmlns="http://www.w3.org/2000/svg">
<path d="M160.011 130.003H159.001V131.013H160.011V130.003Z" fill="#172217"/>
<path d="M160.011 140.003H159.001V142.013H160.001V144.013H161.001V146.013H162.011V143.003H161.011V141.003H160.011V140.003Z" fill="#172217"/>
<path d="M157.001 142.003H158.011V143.013H157.001V142.003Z" fill="#172217"/>
<path d="M160.011 145.003H159.001V147.013H160.001V149.013H161.001V150.013H162.001V151.013H163.001V153.013H164.001V154.013H165.001V156.013H166.011V153.003H165.011V152.003H164.011V151.003H163.011V149.003H161.011V147.003H160.011V145.003Z" fill="#172217"/>
<path d="M164.011 147.003H163.001V148.013H164.001V149.013H165.001V150.013H166.011V149.003H165.011V148.003H164.011V147.003Z" fill="#172217"/>
<path d="M167.011 151.003H166.001V152.013H167.001V153.013H168.011V152.003H167.011V151.003Z" fill="#172217"/>
<path fill-rule="evenodd" clip-rule="evenodd" d="M168.011 156.003H167.001V158.013H168.001V160.013H169.001V161.013H170.001V164.013H171.001V166.013H172.001V167.013H173.001V168.013H174.001V169.013H175.001V171.013H177.011V170.013H179.011V169.003H178.011V167.003H177.011V166.003H176.011V165.003H175.011V164.003H174.011V163.003H173.011V160.003H172.011V159.003H171.001V160.003H170.011V159.003H169.011V157.003H168.011V156.003ZM177.001 170.003V168.013H176.011V170.003H177.001ZM176.001 168.003V167.013H175.011V168.003H176.001ZM175.001 167.003V166.013H174.011V167.003H175.001ZM174.001 166.003V165.013H173.011V166.003H174.001ZM173.001 165.003V163.013H172.011V165.003H173.001ZM172.001 163.003V160.013H171.011V163.003H172.001Z" fill="#172217"/>
<path d="M170.001 156.003H171.011V158.013H170.001V156.003Z" fill="#172217"/>
<path d="M152.011 190.003H151.001V191.013H152.011V190.003Z" fill="#172217"/>
<path d="M123.001 215.003H124.011V216.013H123.001V215.003Z" fill="#172217"/>
<path d="M70.0061 95.995H74.0161V96.995H75.0161V101.005H74.0161V102.005H70.0061V101.005H69.0061V96.995H70.0061V95.995Z" fill="#172217"/>
<path fill-rule="evenodd" clip-rule="evenodd" d="M70.0061 94.995H74.0161V95.995H75.0161V96.995H76.0161V101.005H75.0161V102.005H74.0161V103.005H70.0061V102.005H69.0061V101.005H68.0061V96.995H69.0061V95.995H70.0061V94.995ZM74.0061 101.995V100.995H75.0061V97.005H74.0061V96.005H70.0161V97.005H69.0161V100.995H70.0161V101.995H74.0061Z" fill="#0CA85D"/>
<path d="M120 115.002H124.01V116.002H125.01V120.012H124.01V121.012H120V120.012H119V116.002H120V115.002Z" fill="#172217"/>
<path fill-rule="evenodd" clip-rule="evenodd" d="M120 114.002H124.01V115.002H125.01V116.002H126.01V120.012H125.01V121.012H124.01V122.012H120V121.012H119V120.012H118V116.002H119V115.002H120V114.002ZM124 121.002V120.002H125V116.012H124V115.012H120.01V116.012H119.01V120.002H120.01V121.002H124Z" fill="#0CA85D"/>
<path d="M191.009 202.005H195.019V203.005H196.019V207.015H195.019V208.015H191.009V207.015H190.009V203.005H191.009V202.005Z" fill="#172217"/>
<path fill-rule="evenodd" clip-rule="evenodd" d="M191.009 201.005H195.019V202.005H196.019V203.005H197.019V207.015H196.019V208.015H195.019V209.015H191.009V208.015H190.009V207.015H189.009V203.005H190.009V202.005H191.009V201.005ZM195.009 208.005V207.005H196.009V203.015H195.009V202.015H191.019V203.015H190.019V207.005H191.019V208.005H195.009Z" fill="#0CA85D"/>
<path d="M188.004 133.999H192.014V134.999H193.014V139.009H192.014V140.009H188.004V139.009H187.004V134.999H188.004V133.999Z" fill="#172217"/>
<path fill-rule="evenodd" clip-rule="evenodd" d="M188.004 132.999H192.014V133.999H193.014V134.999H194.014V139.009H193.014V140.009H192.014V141.009H188.004V140.009H187.004V139.009H186.004V134.999H187.004V133.999H188.004V132.999ZM192.004 139.999V138.999H193.004V135.009H192.004V134.009H188.014V135.009H187.014V138.999H188.014V139.999H192.004Z" fill="#0CA85D"/>
<path d="M136 42.9998H140.01V43.9998H141.01V48.0098H140.01V49.0098H136V48.0098H135V43.9998H136V42.9998Z" fill="#172217"/>
<path fill-rule="evenodd" clip-rule="evenodd" d="M136 41.9998H140.01V42.9998H141.01V43.9998H142.01V48.0098H141.01V49.0098H140.01V50.0098H136V49.0098H135V48.0098H134V43.9998H135V42.9998H136V41.9998ZM140 48.9998V47.9998H141V44.0098H140V43.0098H136.01V44.0098H135.01V47.9998H136.01V48.9998H140Z" fill="#0CA85D"/>
</svg>
