<svg width="256" height="256" viewBox="0 0 256 256" fill="none" xmlns="http://www.w3.org/2000/svg">
<path d="M122.01 181.995H121V183.005H122.01V181.995Z" fill="#0CA85D"/>
<path fill-rule="evenodd" clip-rule="evenodd" d="M117 175.995H121.01V176.995H122.01V181.005H121.01V182.005H120.01V184.005H118V182.005H117V181.005H116V176.995H117V175.995ZM120 180.995V180.005H118.01V180.995H120ZM121 179.995V178.005H120.01V179.995H121ZM117.01 179.995H118V178.005H117.01V179.995ZM120 177.005V177.995H118.01V177.005H120Z" fill="#0F380F"/>
<path fill-rule="evenodd" clip-rule="evenodd" d="M118 176.995H120.01V177.995H121.01V180.005H120.01V181.005H118V180.005H117V177.995H118V176.995ZM120 179.995H118.01V178.005H120V179.995Z" fill="#11ED83"/>
<path fill-rule="evenodd" clip-rule="evenodd" d="M117 174.995H121.01V175.995H122.01V176.995H123.01V181.005H122.01V182.005H121.01V184.005H120.01V185.005H118V184.005H117V182.005H116V181.005H115V176.995H116V175.995H117V174.995ZM120 183.995V181.995H121V180.995H122V177.005H121V176.005H117.01V177.005H116.01V180.995H117.01V181.995H118.01V183.995H120Z" fill="#11ED83"/>
</svg>
