<svg width="256" height="256" viewBox="0 0 256 256" fill="none" xmlns="http://www.w3.org/2000/svg">
<path d="M70.0061 95.995H74.0161V96.995H75.0161V101.005H74.0161V102.005H70.0061V101.005H69.0061V96.995H70.0061V95.995Z" fill="#172217"/>
<path fill-rule="evenodd" clip-rule="evenodd" d="M70.0061 94.995H74.0161V95.995H75.0161V96.995H76.0161V101.005H75.0161V102.005H74.0161V103.005H70.0061V102.005H69.0061V101.005H68.0061V96.995H69.0061V95.995H70.0061V94.995ZM74.0061 101.995V100.995H75.0061V97.005H74.0061V96.005H70.0161V97.005H69.0161V100.995H70.0161V101.995H74.0061Z" fill="#0CA85D"/>
<path d="M117 181H121.01V182H122.01V186.01H121.01V187.01H117V186.01H116V182H117V181Z" fill="#172217"/>
<path fill-rule="evenodd" clip-rule="evenodd" d="M117 180H121.01V181H122.01V182H123.01V186.01H122.01V187.01H121.01V188.01H117V187.01H116V186.01H115V182H116V181H117V180ZM121 187V186H122V182.01H121V181.01H117.01V182.01H116.01V186H117.01V187H121Z" fill="#0CA85D"/>
<path d="M191.009 202.005H195.019V203.005H196.019V207.015H195.019V208.015H191.009V207.015H190.009V203.005H191.009V202.005Z" fill="#172217"/>
<path fill-rule="evenodd" clip-rule="evenodd" d="M191.009 201.005H195.019V202.005H196.019V203.005H197.019V207.015H196.019V208.015H195.019V209.015H191.009V208.015H190.009V207.015H189.009V203.005H190.009V202.005H191.009V201.005ZM195.009 208.005V207.005H196.009V203.015H195.009V202.015H191.019V203.015H190.019V207.005H191.019V208.005H195.009Z" fill="#0CA85D"/>
<path d="M188.004 133.999H192.014V134.999H193.014V139.009H192.014V140.009H188.004V139.009H187.004V134.999H188.004V133.999Z" fill="#172217"/>
<path fill-rule="evenodd" clip-rule="evenodd" d="M188.004 132.999H192.014V133.999H193.014V134.999H194.014V139.009H193.014V140.009H192.014V141.009H188.004V140.009H187.004V139.009H186.004V134.999H187.004V133.999H188.004V132.999ZM192.004 139.999V138.999H193.004V135.009H192.004V134.009H188.014V135.009H187.014V138.999H188.014V139.999H192.004Z" fill="#0CA85D"/>
<path d="M136 42.9998H140.01V43.9998H141.01V48.0098H140.01V49.0098H136V48.0098H135V43.9998H136V42.9998Z" fill="#172217"/>
<path fill-rule="evenodd" clip-rule="evenodd" d="M136 41.9998H140.01V42.9998H141.01V43.9998H142.01V48.0098H141.01V49.0098H140.01V50.0098H136V49.0098H135V48.0098H134V43.9998H135V42.9998H136V41.9998ZM140 48.9998V47.9998H141V44.0098H140V43.0098H136.01V44.0098H135.01V47.9998H136.01V48.9998H140Z" fill="#0CA85D"/>
<path d="M129.012 68H128.002V69.01H129.012V68Z" fill="#155432"/>
<path d="M111.002 83V85.01H113.012V83H111.002Z" fill="#155432"/>
<path d="M162.012 90H161.002V92.01H162.012V90Z" fill="#155432"/>
<path fill-rule="evenodd" clip-rule="evenodd" d="M91.0122 121H90.0022V122H89.0022V123.01H90.0022V124.01H91.0122V123.01H92.0122V122H91.0122V121ZM91.0022 123V122.01H90.0122V123H91.0022Z" fill="#155432"/>
<path d="M87.0122 130H86.0022V131H85.0022V132.01H86.0122V131.01H87.0122V130Z" fill="#155432"/>
<path d="M125.002 147V148.01H127.012V147H125.002Z" fill="#155432"/>
<path fill-rule="evenodd" clip-rule="evenodd" d="M144.002 64V65H143.002V66H140.002V67H136.012V66H131.012V65H130.002V67H123.002V68H122.012V66H121.002V67H120.002V68H118.002V69H117.002V70.01H119.002V72.01H120.012V71.01H122.012V70.01H123.012V69.01H124.012V68.01H129.002V69.01H134.002V70.01H135.012V68.01H141.012V67.01H143.002V68H142.002V69H138.002V70.01H142.012V69.01H144.012V68.01H146.012V66H145.002V67H143.012V66.01H144.012V65.01H148.002V66.01H149.012V64H144.002ZM121.002 69.01V70H119.012V69.01H121.002ZM122.002 68.01V69H121.012V68.01H122.002ZM130.012 68V67.01H135.002V68H130.012Z" fill="#172217"/>
<path d="M123.002 65V66.01H129.012V65H123.002Z" fill="#172217"/>
<path d="M150.002 65H151.012V66H152.012V67H153.012V68.01H152.002V67.01H151.002V66.01H150.002V65Z" fill="#172217"/>
<path d="M114.012 67H113.002V69.01H114.002V70.01H115.002V71H113.002V72.01H114.002V73.01H118.012V72H115.012V71.01H116.012V69H115.012V68H114.012V67Z" fill="#172217"/>
<path d="M154.012 69H153.002V70.01H154.012V69Z" fill="#172217"/>
<path d="M158.012 76H157.002V77.01H158.002V79.01H159.002V81.01H160.002V83.01H161.012V81H160.012V79H159.012V77H158.012V76Z" fill="#172217"/>
<path d="M161.002 85H162.012V87H163.012V89.01H162.002V87.01H161.002V85Z" fill="#172217"/>
<path d="M163.002 94H164.012V97.01H163.002V94Z" fill="#172217"/>
<path fill-rule="evenodd" clip-rule="evenodd" d="M159.012 108H158.002V114H157.012V109H156.002V115.01H157.002V120.01H158.002V125.01H159.002V126H158.002V127.01H159.012V126.01H160.012V123.01H161.002V126.01H162.012V122H161.012V118H160.012V113H159.012V108ZM160.002 123V119.01H159.012V123H160.002ZM159.002 119V114.01H158.012V119H159.002Z" fill="#172217"/>
<path d="M136.002 145H137.012V146.01H136.012V147.01H135.002V146H136.002V145Z" fill="#172217"/>
<path d="M133.002 147H134.012V148.01H133.002V147Z" fill="#172217"/>
<path d="M132.012 148H131.002V149.01H132.012V148Z" fill="#172217"/>
<path d="M78.0022 154H80.0122V155H82.0122V156H84.0122V157.01H81.0022V156.01H80.0022V155.01H78.0022V154Z" fill="#172217"/>
</svg>
