<svg width="256" height="256" viewBox="0 0 256 256" fill="none" xmlns="http://www.w3.org/2000/svg">
<path d="M125.01 115.997H124V117.007H125.01V115.997Z" fill="#0CA85D"/>
<path fill-rule="evenodd" clip-rule="evenodd" d="M120 109.997H124.01V110.997H125.01V115.007H124.01V116.007H123.01V118.007H121V116.007H120V115.007H119V110.997H120V109.997ZM123 114.997V114.007H121.01V114.997H123ZM124 113.997V112.007H123.01V113.997H124ZM120.01 113.997H121V112.007H120.01V113.997ZM123 111.007V111.997H121.01V111.007H123Z" fill="#0F380F"/>
<path fill-rule="evenodd" clip-rule="evenodd" d="M121 110.997H123.01V111.997H124.01V114.007H123.01V115.007H121V114.007H120V111.997H121V110.997ZM123 113.997H121.01V112.007H123V113.997Z" fill="#11ED83"/>
<path fill-rule="evenodd" clip-rule="evenodd" d="M120 108.997H124.01V109.997H125.01V110.997H126.01V115.007H125.01V116.007H124.01V118.007H123.01V119.007H121V118.007H120V116.007H119V115.007H118V110.997H119V109.997H120V108.997ZM123 117.997V115.997H124V114.997H125V111.007H124V110.007H120.01V111.007H119.01V114.997H120.01V115.997H121.01V117.997H123Z" fill="#11ED83"/>
</svg>
