<svg width="256" height="256" viewBox="0 0 256 256" fill="none" xmlns="http://www.w3.org/2000/svg">
<path d="M145.002 65H148.012V66H149.012V67H150.012V69H151.012V71H152.012V72H153.012V75H154.012V76H155.012V78H156.012V80H157.012V82H158.012V83H159.012V84H160.012V86H161.012V87H162.012V90.01H161.002V87.01H160.002V86.01H159.002V84.01H158.002V83.01H157.002V82.01H156.002V80.01H155.002V78.01H154.002V76.01H153.002V75.01H152.002V72.01H151.002V71.01H150.002V69.01H149.002V67.01H148.002V66.01H145.012V67.01H143.012V68.01H141.012V69.01H135.002V68.01H130.002V67.01H123.012V68.01H122.012V69.01H121.012V70.01H119.012V71.01H117.012V72.01H115.002V71.01H114.002V70.01H113.002V69.01H112.012V77.01H111.012V82.01H110.012V84.01H109.012V88.01H108.012V90.01H107.012V92.01H106.012V95.01H105.012V97.01H104.012V99.01H103.012V100.01H102.012V101.01H101.012V103.01H100.012V105.01H99.0122V106.01H98.0122V109.01H97.0122V111.01H96.0122V113.01H95.0122V114.01H94.0122V116.01H93.0122V118.01H92.0122V120.01H91.0122V121.01H90.0022V120H91.0022V118H92.0022V116H93.0022V114H94.0022V113H95.0022V111H96.0022V109H97.0022V106H98.0022V105H99.0022V103H100.002V101H101.002V100H102.002V99H103.002V97H104.002V95H105.002V92H106.002V90H107.002V88H108.002V84H109.002V82H110.002V77H111.002V68H113.012V69H114.012V70H115.012V71H117.002V70H119.002V69H121.002V68H122.002V67H123.002V66H130.012V67H135.012V68H141.002V67H143.002V66H145.002V65Z" fill="#11ED83"/>
<path d="M161.002 92H162.012V96.01H161.012V99.01H160.012V100.01H159.012V102.01H158.012V103.01H155.012V105H156.012V106H157.012V107H158.012V114H159.012V119H160.012V123H161.012V128.01H160.012V129.01H159.012V130.01H157.012V131.01H156.012V132.01H155.012V133.01H154.012V134.01H153.012V135.01H151.012V136.01H150.012V137.01H149.012V138.01H147.012V139.01H146.012V140.01H144.012V141.01H140.012V142.01H137.012V143.01H135.012V144.01H133.012V145.01H131.012V146.01H130.012V147.01H127.002V146H130.002V145H131.002V144H133.002V143H135.002V142H137.002V141H140.002V140H144.002V139H146.002V138H147.002V137H149.002V136H150.002V135H151.002V134H153.002V133H154.002V132H155.002V131H156.002V130H157.002V129H159.002V127H160.002V123.01H159.002V119.01H158.002V114.01H157.002V107.01H156.002V106.01H155.002V105.01H154.002V102H158.002V99H160.002V96H161.002V92Z" fill="#11ED83"/>
<path d="M90.0122 123H89.0022V124H88.0022V126H87.0022V128H86.0022V130.01H87.0122V128.01H88.0122V126.01H89.0122V124.01H90.0122V123Z" fill="#11ED83"/>
<path d="M86.0122 132H85.0022V133H84.0022V135H83.0022V138H82.0022V140H81.0022V142H80.0022V144H79.0022V147H78.0022V149H77.0022V152H76.0022V155.01H77.0022V156.01H79.0022V157.01H81.0022V158.01H83.0022V159.01H85.0022V160.01H89.0022V161.01H97.0122V160.01H100.012V159.01H102.012V158.01H103.012V157.01H109.012V156.01H111.012V155.01H112.012V154.01H113.012V153.01H114.012V152.01H117.012V151.01H120.012V150.01H123.012V149.01H125.012V148H123.002V149H120.002V150H117.002V151H114.002V152H112.002V154H111.002V155H109.002V156H103.002V157H102.002V158H100.002V159H97.0022V160H89.0122V159H85.0122V158H83.0122V157H81.0122V156H79.0122V155H77.0122V152.01H78.0122V149.01H79.0122V147.01H80.0122V144.01H81.0122V142.01H82.0122V140.01H83.0122V138.01H84.0122V135.01H85.0122V133.01H86.0122V132Z" fill="#11ED83"/>
</svg>
