<svg width="256" height="256" viewBox="0 0 256 256" fill="none" xmlns="http://www.w3.org/2000/svg">
<path d="M196.019 203H195.009V204.01H196.019V203Z" fill="#0CA85D"/>
<path fill-rule="evenodd" clip-rule="evenodd" d="M191.009 197H195.019V198H196.019V202.01H195.019V203.01H194.019V205.01H192.009V203.01H191.009V202.01H190.009V198H191.009V197ZM194.009 202V201.01H192.019V202H194.009ZM195.009 201V199.01H194.019V201H195.009ZM191.019 201H192.009V199.01H191.019V201ZM194.009 198.01V199H192.019V198.01H194.009Z" fill="#0F380F"/>
<path fill-rule="evenodd" clip-rule="evenodd" d="M192.009 198H194.019V199H195.019V201.01H194.019V202.01H192.009V201.01H191.009V199H192.009V198ZM194.009 201H192.019V199.01H194.009V201Z" fill="#11ED83"/>
<path fill-rule="evenodd" clip-rule="evenodd" d="M191.009 196H195.019V197H196.019V198H197.019V202.01H196.019V203.01H195.019V205.01H194.019V206.01H192.009V205.01H191.009V203.01H190.009V202.01H189.009V198H190.009V197H191.009V196ZM194.009 205V203H195.009V202H196.009V198.01H195.009V197.01H191.019V198.01H190.019V202H191.019V203H192.019V205H194.009Z" fill="#11ED83"/>
</svg>
