<svg width="256" height="256" viewBox="0 0 256 256" fill="none" xmlns="http://www.w3.org/2000/svg">
<path d="M207.01 197.998H206V199.008H207.01V197.998Z" fill="#172217"/>
<path fill-rule="evenodd" clip-rule="evenodd" d="M191 177.998V178.998H190V184.998H186V185.998H185V186.998H184.01V185.998H183.01V184.998H182.01V183.998H177V184.998H176V185.998H175V197.998H174.01V196.998H165V198.998H164V202.998H163V208.008H164V210.008H165V211.008H168V212.008H169V213.008H177V218.008H178V219.008H181.01V218.008H182.01V217.008H184V218.008H185V219.008H186V220.008H187V221.008H188V222.008H191.01V221.008H194V225.008H195V226.008H199V228.008H200V229.008H203.01V228.008H204.01V223.008H205V224.008H206V225.008H212V226.008H216V227.008H219.01V226.008H224.01V225.008H225.01V224.008H226.01V220.998H225.01V219.998H224.01V216.008H225.01V211.998H224.01V208.998H223.01V207.998H221.01V206.998H219.01V204.998H218.01V203.998H217.01V199.998H216.01V198.998H208.01V197.998H207.01V195.998H206.01V194.998H205.01V193.998H204.01V192.998H200.01V178.998H199.01V177.998H191ZM203 227.998V221.998H205.01V222.998H206.01V223.998H212.01V224.998H216.01V225.998H219V224.998H224V223.998H225V221.008H223V215.998H224V212.008H223V209.008H221V208.008H218V205.008H216V200.008H210.01V201.008H209V200.008H208V199.008H207V198.008H206V196.008H204V194.008H199V179.008H191.01V186.008H186.01V188.008H183V186.008H182V185.008H177.01V186.008H176.01V198.008H175.01V199.008H174V198.008H166.01V199.008H165.01V203.008H164.01V207.998H165.01V209.998H168V208.998H169.01V211.998H177V210.998H178.01V212.998H179.01V214.008H178.01V217.998H181V216.998H182V215.998H184.01V216.998H185.01V217.998H186.01V218.998H188.01V220.998H191V219.998H195.01V224.998H200.01V227.998H203Z" fill="#11ED83"/>
<path d="M71.0061 95.995H75.0161V96.995H76.0161V101.005H75.0161V102.005H71.0061V101.005H70.0061V96.995H71.0061V95.995Z" fill="#172217"/>
<path fill-rule="evenodd" clip-rule="evenodd" d="M71.0061 94.995H75.0161V95.995H76.0161V96.995H77.0161V101.005H76.0161V102.005H75.0161V103.005H71.0061V102.005H70.0061V101.005H69.0061V96.995H70.0061V95.995H71.0061V94.995ZM75.0061 101.995V100.995H76.0061V97.005H75.0061V96.005H71.0161V97.005H70.0161V100.995H71.0161V101.995H75.0061Z" fill="#0CA85D"/>
<path d="M121 115.002H125.01V116.002H126.01V120.012H125.01V121.012H121V120.012H120V116.002H121V115.002Z" fill="#172217"/>
<path fill-rule="evenodd" clip-rule="evenodd" d="M121 114.002H125.01V115.002H126.01V116.002H127.01V120.012H126.01V121.012H125.01V122.012H121V121.012H120V120.012H119V116.002H120V115.002H121V114.002ZM125 121.002V120.002H126V116.012H125V115.012H121.01V116.012H120.01V120.002H121.01V121.002H125Z" fill="#0CA85D"/>
<path d="M118 181H122.01V182H123.01V186.01H122.01V187.01H118V186.01H117V182H118V181Z" fill="#172217"/>
<path fill-rule="evenodd" clip-rule="evenodd" d="M118 180H122.01V181H123.01V182H124.01V186.01H123.01V187.01H122.01V188.01H118V187.01H117V186.01H116V182H117V181H118V180ZM122 187V186H123V182.01H122V181.01H118.01V182.01H117.01V186H118.01V187H122Z" fill="#0CA85D"/>
<path d="M189.004 133.999H193.014V134.999H194.014V139.009H193.014V140.009H189.004V139.009H188.004V134.999H189.004V133.999Z" fill="#172217"/>
<path fill-rule="evenodd" clip-rule="evenodd" d="M189.004 132.999H193.014V133.999H194.014V134.999H195.014V139.009H194.014V140.009H193.014V141.009H189.004V140.009H188.004V139.009H187.004V134.999H188.004V133.999H189.004V132.999ZM193.004 139.999V138.999H194.004V135.009H193.004V134.009H189.014V135.009H188.014V138.999H189.014V139.999H193.004Z" fill="#0CA85D"/>
<path d="M137 42.9998H141.01V43.9998H142.01V48.0098H141.01V49.0098H137V48.0098H136V43.9998H137V42.9998Z" fill="#172217"/>
<path fill-rule="evenodd" clip-rule="evenodd" d="M137 41.9998H141.01V42.9998H142.01V43.9998H143.01V48.0098H142.01V49.0098H141.01V50.0098H137V49.0098H136V48.0098H135V43.9998H136V42.9998H137V41.9998ZM141 48.9998V47.9998H142V44.0098H141V43.0098H137.01V44.0098H136.01V47.9998H137.01V48.9998H141Z" fill="#0CA85D"/>
</svg>
