<svg width="256" height="256" viewBox="0 0 256 256" fill="none" xmlns="http://www.w3.org/2000/svg">
<path fill-rule="evenodd" clip-rule="evenodd" d="M190 177.998V178.998H189V184.998H185V185.998H184V186.998H183.01V185.998H182.01V184.998H181.01V183.998H176V184.998H175V185.998H174V197.998H173.01V196.998H164V198.998H163V202.998H162V208.008H163V210.008H164V211.008H167V212.008H168V213.008H176V218.008H177V219.008H180.01V218.008H181.01V217.008H183V218.008H184V219.008H185V220.008H186V221.008H187V222.008H190.01V221.008H193V225.008H194V226.008H198V228.008H199V229.008H202.01V228.008H203.01V223.008H204V224.008H205V225.008H211V226.008H215V227.008H218.01V226.008H223.01V225.008H224.01V224.008H225.01V220.998H224.01V219.998H223.01V216.008H224.01V211.998H223.01V208.998H222.01V207.998H220.01V206.998H218.01V204.998H217.01V203.998H216.01V199.998H215.01V198.998H207.01V197.998H206.01V195.998H205.01V194.998H204.01V193.998H203.01V192.998H199.01V178.998H198.01V177.998H190ZM202 227.998V221.998H204.01V222.998H205.01V223.998H211.01V224.998H215.01V225.998H218V224.998H223V223.998H224V221.008H222V215.998H223V212.008H222V209.008H220V208.008H217V205.008H215V200.008H209.01V201.008H208V200.008H207V199.008H206V198.008H205V196.008H203V194.008H198V179.008H190.01V186.008H185.01V188.008H182V186.008H181V185.008H176.01V186.008H175.01V198.008H174.01V199.008H173V198.008H165.01V199.008H164.01V203.008H163.01V207.998H164.01V209.998H167V208.998H168.01V211.998H176V210.998H177.01V212.998H178.01V214.008H177.01V217.998H180V216.998H181V215.998H183.01V216.998H184.01V217.998H185.01V218.998H187.01V220.998H190V219.998H194.01V224.998H199.01V227.998H202Z" fill="#11ED83"/>
</svg>
