<svg width="256" height="256" viewBox="0 0 256 256" fill="none" xmlns="http://www.w3.org/2000/svg">
<path d="M75.0161 96.99H74.0061V98H75.0161V96.99Z" fill="#0CA85D"/>
<path fill-rule="evenodd" clip-rule="evenodd" d="M70.0061 90.99H74.0161V91.99H75.0161V96H74.0161V97H73.0161V99H71.0061V97H70.0061V96H69.0061V91.99H70.0061V90.99ZM73.0061 95.99V95H71.0161V95.99H73.0061ZM74.0061 94.99V93H73.0161V94.99H74.0061ZM70.0161 94.99H71.0061V93H70.0161V94.99ZM73.0061 92V92.99H71.0161V92H73.0061Z" fill="#0F380F"/>
<path fill-rule="evenodd" clip-rule="evenodd" d="M71.0061 91.99H73.0161V92.99H74.0161V95H73.0161V96H71.0061V95H70.0061V92.99H71.0061V91.99ZM73.0061 94.99H71.0161V93H73.0061V94.99Z" fill="#11ED83"/>
<path fill-rule="evenodd" clip-rule="evenodd" d="M70.0061 89.99H74.0161V90.99H75.0161V91.99H76.0161V96H75.0161V97H74.0161V99H73.0161V100H71.0061V99H70.0061V97H69.0061V96H68.0061V91.99H69.0061V90.99H70.0061V89.99ZM73.0061 98.99V96.99H74.0061V95.99H75.0061V92H74.0061V91H70.0161V92H69.0161V95.99H70.0161V96.99H71.0161V98.99H73.0061Z" fill="#11ED83"/>
</svg>
