<svg width="256" height="256" viewBox="0 0 256 256" fill="none" xmlns="http://www.w3.org/2000/svg">
<path d="M86 28H87.01V30.01H86V28Z" fill="#172217"/>
<path d="M76.01 127H75V129.01H76.01V127Z" fill="#155432"/>
<path d="M74.01 128H73V129.01H74.01V128Z" fill="#155432"/>
<path d="M120 115.002H124.01V116.002H125.01V120.012H124.01V121.012H120V120.012H119V116.002H120V115.002Z" fill="#172217"/>
<path fill-rule="evenodd" clip-rule="evenodd" d="M120 114.002H124.01V115.002H125.01V116.002H126.01V120.012H125.01V121.012H124.01V122.012H120V121.012H119V120.012H118V116.002H119V115.002H120V114.002ZM124 121.002V120.002H125V116.012H124V115.012H120.01V116.012H119.01V120.002H120.01V121.002H124Z" fill="#0CA85D"/>
<path d="M117 181H121.01V182H122.01V186.01H121.01V187.01H117V186.01H116V182H117V181Z" fill="#172217"/>
<path fill-rule="evenodd" clip-rule="evenodd" d="M117 180H121.01V181H122.01V182H123.01V186.01H122.01V187.01H121.01V188.01H117V187.01H116V186.01H115V182H116V181H117V180ZM121 187V186H122V182.01H121V181.01H117.01V182.01H116.01V186H117.01V187H121Z" fill="#0CA85D"/>
<path d="M191.009 202.005H195.019V203.005H196.019V207.015H195.019V208.015H191.009V207.015H190.009V203.005H191.009V202.005Z" fill="#172217"/>
<path fill-rule="evenodd" clip-rule="evenodd" d="M191.009 201.005H195.019V202.005H196.019V203.005H197.019V207.015H196.019V208.015H195.019V209.015H191.009V208.015H190.009V207.015H189.009V203.005H190.009V202.005H191.009V201.005ZM195.009 208.005V207.005H196.009V203.015H195.009V202.015H191.019V203.015H190.019V207.005H191.019V208.005H195.009Z" fill="#0CA85D"/>
<path d="M188.004 133.999H192.014V134.999H193.014V139.009H192.014V140.009H188.004V139.009H187.004V134.999H188.004V133.999Z" fill="#172217"/>
<path fill-rule="evenodd" clip-rule="evenodd" d="M188.004 132.999H192.014V133.999H193.014V134.999H194.014V139.009H193.014V140.009H192.014V141.009H188.004V140.009H187.004V139.009H186.004V134.999H187.004V133.999H188.004V132.999ZM192.004 139.999V138.999H193.004V135.009H192.004V134.009H188.014V135.009H187.014V138.999H188.014V139.999H192.004Z" fill="#0CA85D"/>
<path d="M136 42.9998H140.01V43.9998H141.01V48.0098H140.01V49.0098H136V48.0098H135V43.9998H136V42.9998Z" fill="#172217"/>
<path fill-rule="evenodd" clip-rule="evenodd" d="M136 41.9998H140.01V42.9998H141.01V43.9998H142.01V48.0098H141.01V49.0098H140.01V50.0098H136V49.0098H135V48.0098H134V43.9998H135V42.9998H136V41.9998ZM140 48.9998V47.9998H141V44.0098H140V43.0098H136.01V44.0098H135.01V47.9998H136.01V48.9998H140Z" fill="#0CA85D"/>
</svg>
