<svg width="256" height="256" viewBox="0 0 256 256" fill="none" xmlns="http://www.w3.org/2000/svg">
<path fill-rule="evenodd" clip-rule="evenodd" d="M67 25H70.01V26H71.01V28H72.01V29H74.01V30H79.01V31H80V30H81V29H84.01V30H86.01V31H88V28H89V27H92.01V28H93.01V29H94.01V32H96.01V35H98V34H102.01V35H103.01V39H104.01V49H105.01V54.01H104V49.01H103V39.01H102V35.01H98.01V36.01H95V33.01H93V29.01H92V28.01H89.01V32.01H85V31.01H84V30.01H81.01V32.01H80.01V34.01H79V31.01H74V30.01H71V28.01H70V26.01H67.01V29.01H62.01V31.01H60V30.01H57.01V32.01H56.01V35H58.01V36H70V35H77.01V41.01H75V38.01H70.01V39.01H69.01V43.01H67.01V44.01H64.01V49.01H61.01V50.01H60.01V52.01H57.01V55H60.01V57H61.01V58.01H60.01V60.01H58.01V63H64V62H65V61H66.01V63H67.01V65H68.01V66.01H67.01V72.01H66V63.01H64.01V64.01H58V63.01H57V60H58V59H59V58H60V57.01H59V56.01H57V55.01H56V52H57V51H59V50H60V49H61V48H63V44H64V43H67V42H68V39H69V38H70V37.01H58V36.01H56V35.01H55V32H56V30H57V29H60.01V30H61V29H62V28H66V26H67V25ZM76 38H75.01V37H70.01V36.01H76V38Z" fill="#11ED83"/>
<path d="M103 57H104.01V59.01H103.01V60.01H102.01V67H103.01V74.01H102.01V75H103.01V80H104.01V84.01H103.01V85.01H102.01V89.01H101.01V91.01H100.01V93.01H99.01V95.01H98.01V96.01H95.01V98.01H94.01V99.01H93.01V100.01H92.01V102.01H91.01V103.01H90.01V105.01H89.01V107.01H88.01V108.01H87.01V110.01H86.01V111.01H85.01V113.01H84.01V114.01H83.01V116.01H82.01V118.01H81.01V119.01H80.01V121.01H79.01V123.01H78.01V125.01H77.01V127.01H76V125H77V123H78V121H79V119H80V118H81V116H82V114H83V113H84V111H85V110H86V108H87V107H88V105H89V103H90V102H91V100H92V99H93V98H94V96H95V95H98V93H99V91H100V89H101V85H102V84H103V80.01H102V75.01H101V74H102V67.01H101V59H103V57Z" fill="#11ED83"/>
<path d="M60 73H63.01V74.01H60V73Z" fill="#11ED83"/>
<path d="M53 74H59.01V75.01H53.01V76.01H50.01V79.01H47.01V82H55.01V83H56.01V84H57.01V85.01H51.01V89.01H45.01V90.01H44.01V94H50.01V95.01H46.01V99H51V98H52.01V102H53.01V104H54.01V105H55.01V106H56.01V108.01H51.01V111H52.01V112.01H49.01V115.01H48.01V119H49.01V125.01H48.01V130H52V129H54V128H56.01V129.01H55.01V131.01H46V130.01H42.01V131.01H41V130.01H39V129.01H33.01V131.01H30.01V135.01H28.01V137.01H26V135.01H25V134.01H24V133.01H21.01V134.01H20.01V135.01H19.01V139.01H18.01V141.01H17.01V146H20.01V150H22.01V151.01H20.01V153.01H19.01V156H21.01V158H22.01V159H25V158H26V157H27.01V158H30.01V160H32.01V161.01H31.01V165H32.01V168.01H30.01V173H33.01V180H37V179H38V176H39V175H42V174H43V173H44.01V176H47V170H48V169H49V168H50V167H51V166H52V165H53V164H54V163H55V162H56V161H57V160H58.01V161.01H57.01V162.01H56.01V163.01H55.01V164.01H54.01V165.01H53.01V166.01H52.01V167.01H51.01V168.01H50.01V169.01H49.01V170.01H48.01V176.01H47.01V177.01H44V176.01H43V175.01H42.01V176.01H39.01V179.01H38.01V180.01H37.01V181.01H33V180.01H32V174.01H30V173.01H29V168H30V167H31V165.01H30V161.01H29V159.01H27V158.01H26.01V159.01H25.01V160.01H22V159.01H21V158.01H20V157.01H19V156.01H18V153H19V151H20V150.01H19V147.01H17V146.01H16V141H17V139H18V135H19V134H20V133H21V132H24.01V133H25.01V134H26.01V135H28V134H29V131H30V130H32V129H33V128H39.01V129H41.01V130H42V129H46.01V130H47V125H48V119.01H47V115H48V112H49V111H50V108H51V107H55V106.01H54V105.01H53V104.01H52V102.01H51V100.01H46V99.01H45V95.01H44V94.01H43V90H44V89H45V88H50V85H51V84H55V83.01H47V82.01H46V79H47V78H49V76H50V75H53V74Z" fill="#11ED83"/>
<path d="M75.01 129H74V131H73V133H72V135H71V137H70V139H69V141H68V142H67V144H66V146H65V147H64V149H63V150H62V152H61V153H60V155H59V156.01H60.01V155.01H61.01V153.01H62.01V152.01H63.01V150.01H64.01V149.01H65.01V147.01H66.01V146.01H67.01V144.01H68.01V142.01H69.01V141.01H70.01V139.01H71.01V137.01H72.01V135.01H73.01V133.01H74.01V131.01H75.01V129Z" fill="#11ED83"/>
</svg>
