<svg width="256" height="256" viewBox="0 0 256 256" fill="none" xmlns="http://www.w3.org/2000/svg">
<path d="M148.006 61.9976H146.996V63.0076H148.006V61.9976Z" fill="#155432"/>
<path d="M156.006 138.998H154.996V143.008H155.996V144.008H156.996V145.008H157.996V146.008H158.996V147.008H159.996V149.008H160.996V150.008H161.996V151.008H162.996V153.008H163.996V154.008H164.996V156.008H166.006V152.998H165.006V151.998H164.006V150.998H163.006V148.998H161.006V145.998H160.006V144.998H159.006V143.998H158.006V142.998H157.006V141.998H156.006V138.998Z" fill="#172217"/>
<path d="M156.996 139.998H158.006V141.008H156.996V139.998Z" fill="#172217"/>
<path d="M159.996 142.998H161.006V143.998H162.006V144.998H163.006V146.008H161.996V145.008H160.996V144.008H159.996V142.998Z" fill="#172217"/>
<path d="M162.996 146.998H164.006V147.998H165.006V148.998H166.006V150.008H164.996V149.008H163.996V148.008H162.996V146.998Z" fill="#172217"/>
<path d="M165.996 150.998H167.006V151.998H168.006V153.008H166.996V152.008H165.996V150.998Z" fill="#172217"/>
<path fill-rule="evenodd" clip-rule="evenodd" d="M166.996 155.998H168.006V156.998H169.006V158.998H170.006V159.998H170.996V158.998H172.006V159.998H173.006V162.998H174.006V163.998H175.006V164.998H176.006V165.998H177.006V166.998H178.006V168.998H179.006V170.008H177.006V171.008H174.996V169.008H173.996V168.008H172.996V167.008H171.996V166.008H170.996V164.008H169.996V161.008H168.996V160.008H167.996V158.008H166.996V155.998ZM176.006 169.998H176.996V168.008H176.006V169.998ZM175.006 167.998H175.996V167.008H175.006V167.998ZM174.006 166.998H174.996V166.008H174.006V166.998ZM173.996 165.008V165.998H173.006V165.008H173.996ZM172.996 164.998H172.006V163.008H172.996V164.998ZM171.996 162.998H171.006V160.008H171.996V162.998Z" fill="#172217"/>
<path d="M171.006 155.998H169.996V158.008H171.006V155.998Z" fill="#172217"/>
<path d="M201.996 165.998H203.006V167.008H201.996V165.998Z" fill="#172217"/>
<path d="M172.006 58.9976H166.996V59.9976H164.996V60.9976H162.996V61.9976H160.996V62.9976H159.996V66.9976H158.996V68.9976H157.996V70.9976H156.996V75.0076H157.996V76.0076H158.996V78.0076H159.996V79.0076H160.996V81.0076H161.996V83.0076H162.996V84.0076H164.996V88.0076H165.996V90.0076H167.006V87.9976H166.006V82.9976H163.006V80.9976H162.006V78.9976H161.006V77.9976H160.006V75.9976H159.006V74.9976H158.006V71.0076H159.006V69.0076H160.006V67.0076H161.006V63.0076H163.006V62.0076H165.006V61.0076H167.006V60.0076H171.996V61.0076H173.996V62.0076H174.996V63.0076H176.996V64.0076H179.996V68.9976H178.996V73.0076H179.996V74.0076H180.996V78.0076H183.996V80.0076H185.996V84.0076H187.996V86.0076H189.006V85.0076H192.006V84.0076H193.006V83.0076H196.996V84.0076H197.996V85.0076H198.996V87.9976H196.996V88.9976H194.996V89.9976H192.006V88.9976H189.996V92.9976H188.996V94.0076H189.996V96.9976H187.996V98.0076H189.996V99.0076H191.996V100.008H194.996V103.008H195.996V104.008H197.996V110.008H200.996V112.998H199.996V114.008H200.996V115.008H203.996V116.008H205.996V117.008H206.996V118.008H208.996V119.008H212.996V121.998H211.996V123.998H210.996V125.008H211.996V126.008H212.996V127.008H214.006V126.008H218.996V127.008H220.996V128.008H221.996V131.008H222.996V134.998H217.996V137.008H221.996V139.998H220.996V141.998H219.996V142.998H217.996V147.008H219.006V145.008H222.996V147.008H223.996V153.998H217.996V154.998H214.006V153.998H213.006V151.998H210.996V152.998H208.996V158.008H210.996V160.998H209.996V162.998H204.996V164.998H201.996V165.998H200.996V166.998H197.006V164.008H198.006V162.998H197.006V160.998H194.996V161.998H193.996V162.998H192.996V163.998H191.996V164.998H190.996V165.998H188.996V166.998H187.996V169.008H189.996V172.998H188.996V173.998H186.006V172.998H179.006V170.998H178.006V169.998H177.006V167.998H176.006V166.998H175.006V165.998H174.006V164.998H173.006V162.998H172.006V159.998H171.006V158.998H170.006V156.998H169.006V155.998H168.006V154.998H167.006V152.998H166.006V151.998H165.006V149.998H164.006V148.998H163.006V147.998H162.006V145.998H161.006V144.998H160.006V143.998H159.006V142.998H158.006V141.998H157.006V140.008H158.006V139.008H159.006V138.008H160.006V137.008H161.006V135.008H162.006V134.008H163.006V133.008H164.006V132.008H165.006V131.008H166.006V130.008H167.006V129.008H168.006V125.998H167.006V119.998H165.006V115.998H163.996V120.008H164.996V121.008H165.996V126.008H166.996V128.998H165.996V129.998H164.996V130.998H163.996V131.998H162.996V132.998H161.996V133.998H160.996V134.998H159.996V136.998H158.996V137.998H157.996V138.998H156.996V139.998H155.996V142.008H156.996V143.008H157.996V144.008H158.996V145.008H159.996V146.008H160.996V148.008H161.996V149.008H162.996V150.008H163.996V152.008H164.996V153.008H165.996V155.008H166.996V156.008H167.996V157.008H168.996V159.008H169.996V160.008H170.996V163.008H171.996V165.008H172.996V166.008H173.996V167.008H174.996V168.008H175.996V170.008H176.996V171.008H177.996V173.008H178.996V174.008H185.996V175.008H189.006V174.008H191.006V168.998H190.006V167.998H189.006V167.008H191.006V166.008H192.006V165.008H193.006V164.008H194.006V163.008H195.006V162.008H195.996V163.008H196.996V163.998H195.996V167.008H196.996V168.008H201.006V167.008H202.006V166.008H205.006V165.008H206.006V164.008H210.006V163.008H211.006V161.008H212.006V157.998H211.006V156.998H210.006V154.008H211.006V153.008H211.996V154.008H212.996V155.008H213.996V156.008H218.006V155.008H224.006V154.008H225.006V146.998H224.006V144.998H223.006V143.998H220.006V143.008H221.006V142.008H222.006V140.008H223.006V136.998H222.006V136.008H223.006V135.008H224.006V130.998H223.006V127.998H222.006V126.998H221.006V125.998H219.006V124.998H213.996V125.998H213.006V124.998H212.006V124.008H213.006V122.008H214.006V118.998H213.006V117.998H209.006V116.998H207.006V115.998H206.006V114.998H204.006V113.998H201.006V113.008H202.006V109.998H201.006V108.998H199.006V103.998H198.006V102.998H196.006V99.9976H195.006V98.9976H192.006V97.9976H190.006V97.0076H191.006V93.9976H190.006V93.0076H191.006V90.0076H191.996V91.0076H195.006V90.0076H197.006V89.0076H199.006V88.0076H200.006V84.9976H199.006V83.9976H198.006V81.9976H192.996V82.9976H191.996V83.9976H188.006V82.9976H187.006V79.9976H186.006V78.9976H185.006V77.9976H184.006V76.9976H182.006V73.9976H181.006V72.9976H180.006V69.0076H181.006V63.9976H180.006V62.9976H177.006V61.9976H175.006V60.9976H174.006V59.9976H172.006V58.9976Z" fill="#11ED83"/>
<path d="M167.006 91.9976H165.996V99.9976H164.996V100.998H163.996V101.998H162.996V102.998H161.996V104.998H160.996V109.008H161.996V114.008H164.006V112.998H163.006V108.998H162.006V105.008H163.006V104.008H164.006V102.008H165.006V101.008H166.006V100.008H167.006V91.9976Z" fill="#11ED83"/>
<path d="M70.0061 95.995H74.0161V96.995H75.0161V101.005H74.0161V102.005H70.0061V101.005H69.0061V96.995H70.0061V95.995Z" fill="#172217"/>
<path fill-rule="evenodd" clip-rule="evenodd" d="M70.0061 94.995H74.0161V95.995H75.0161V96.995H76.0161V101.005H75.0161V102.005H74.0161V103.005H70.0061V102.005H69.0061V101.005H68.0061V96.995H69.0061V95.995H70.0061V94.995ZM74.0061 101.995V100.995H75.0061V97.005H74.0061V96.005H70.0161V97.005H69.0161V100.995H70.0161V101.995H74.0061Z" fill="#0CA85D"/>
<path d="M120 115.002H124.01V116.002H125.01V120.012H124.01V121.012H120V120.012H119V116.002H120V115.002Z" fill="#172217"/>
<path fill-rule="evenodd" clip-rule="evenodd" d="M120 114.002H124.01V115.002H125.01V116.002H126.01V120.012H125.01V121.012H124.01V122.012H120V121.012H119V120.012H118V116.002H119V115.002H120V114.002ZM124 121.002V120.002H125V116.012H124V115.012H120.01V116.012H119.01V120.002H120.01V121.002H124Z" fill="#0CA85D"/>
<path d="M117 181H121.01V182H122.01V186.01H121.01V187.01H117V186.01H116V182H117V181Z" fill="#172217"/>
<path fill-rule="evenodd" clip-rule="evenodd" d="M117 180H121.01V181H122.01V182H123.01V186.01H122.01V187.01H121.01V188.01H117V187.01H116V186.01H115V182H116V181H117V180ZM121 187V186H122V182.01H121V181.01H117.01V182.01H116.01V186H117.01V187H121Z" fill="#0CA85D"/>
<path d="M191.009 202.005H195.019V203.005H196.019V207.015H195.019V208.015H191.009V207.015H190.009V203.005H191.009V202.005Z" fill="#172217"/>
<path fill-rule="evenodd" clip-rule="evenodd" d="M191.009 201.005H195.019V202.005H196.019V203.005H197.019V207.015H196.019V208.015H195.019V209.015H191.009V208.015H190.009V207.015H189.009V203.005H190.009V202.005H191.009V201.005ZM195.009 208.005V207.005H196.009V203.015H195.009V202.015H191.019V203.015H190.019V207.005H191.019V208.005H195.009Z" fill="#0CA85D"/>
<path d="M136 42.9998H140.01V43.9998H141.01V48.0098H140.01V49.0098H136V48.0098H135V43.9998H136V42.9998Z" fill="#172217"/>
<path fill-rule="evenodd" clip-rule="evenodd" d="M136 41.9998H140.01V42.9998H141.01V43.9998H142.01V48.0098H141.01V49.0098H140.01V50.0098H136V49.0098H135V48.0098H134V43.9998H135V42.9998H136V41.9998ZM140 48.9998V47.9998H141V44.0098H140V43.0098H136.01V44.0098H135.01V47.9998H136.01V48.9998H140Z" fill="#0CA85D"/>
</svg>
