<svg width="256" height="256" viewBox="0 0 256 256" fill="none" xmlns="http://www.w3.org/2000/svg">
<path d="M148.006 61.9976H146.996V63.0076H148.006V61.9976Z" fill="#155432"/>
<path d="M156.006 138.998H154.996V143.008H155.996V144.008H156.996V145.008H157.996V146.008H158.996V147.008H159.996V149.008H160.996V150.008H161.996V151.008H162.996V153.008H163.996V154.008H164.996V156.008H166.006V152.998H165.006V151.998H164.006V150.998H163.006V148.998H161.006V145.998H160.006V144.998H159.006V143.998H158.006V142.998H157.006V141.998H156.006V138.998Z" fill="#172217"/>
<path d="M156.996 139.998H158.006V141.008H156.996V139.998Z" fill="#172217"/>
<path d="M159.996 142.998H161.006V143.998H162.006V144.998H163.006V146.008H161.996V145.008H160.996V144.008H159.996V142.998Z" fill="#172217"/>
<path d="M162.996 146.998H164.006V147.998H165.006V148.998H166.006V150.008H164.996V149.008H163.996V148.008H162.996V146.998Z" fill="#172217"/>
<path d="M165.996 150.998H167.006V151.998H168.006V153.008H166.996V152.008H165.996V150.998Z" fill="#172217"/>
<path fill-rule="evenodd" clip-rule="evenodd" d="M166.996 155.998H168.006V156.998H169.006V158.998H170.006V159.998H170.996V158.998H172.006V159.998H173.006V162.998H174.006V163.998H175.006V164.998H176.006V165.998H177.006V166.998H178.006V168.998H179.006V170.008H177.006V171.008H174.996V169.008H173.996V168.008H172.996V167.008H171.996V166.008H170.996V164.008H169.996V161.008H168.996V160.008H167.996V158.008H166.996V155.998ZM176.006 169.998H176.996V168.008H176.006V169.998ZM175.006 167.998H175.996V167.008H175.006V167.998ZM174.006 166.998H174.996V166.008H174.006V166.998ZM173.996 165.008V165.998H173.006V165.008H173.996ZM172.996 164.998H172.006V163.008H172.996V164.998ZM171.996 162.998H171.006V160.008H171.996V162.998Z" fill="#172217"/>
<path d="M171.006 155.998H169.996V158.008H171.006V155.998Z" fill="#172217"/>
<path d="M201.996 165.998H203.006V167.008H201.996V165.998Z" fill="#172217"/>
<path d="M70.0061 95.995H74.0161V96.995H75.0161V101.005H74.0161V102.005H70.0061V101.005H69.0061V96.995H70.0061V95.995Z" fill="#172217"/>
<path fill-rule="evenodd" clip-rule="evenodd" d="M70.0061 94.995H74.0161V95.995H75.0161V96.995H76.0161V101.005H75.0161V102.005H74.0161V103.005H70.0061V102.005H69.0061V101.005H68.0061V96.995H69.0061V95.995H70.0061V94.995ZM74.0061 101.995V100.995H75.0061V97.005H74.0061V96.005H70.0161V97.005H69.0161V100.995H70.0161V101.995H74.0061Z" fill="#0CA85D"/>
<path d="M120 115.002H124.01V116.002H125.01V120.012H124.01V121.012H120V120.012H119V116.002H120V115.002Z" fill="#172217"/>
<path fill-rule="evenodd" clip-rule="evenodd" d="M120 114.002H124.01V115.002H125.01V116.002H126.01V120.012H125.01V121.012H124.01V122.012H120V121.012H119V120.012H118V116.002H119V115.002H120V114.002ZM124 121.002V120.002H125V116.012H124V115.012H120.01V116.012H119.01V120.002H120.01V121.002H124Z" fill="#0CA85D"/>
<path d="M117 181H121.01V182H122.01V186.01H121.01V187.01H117V186.01H116V182H117V181Z" fill="#172217"/>
<path fill-rule="evenodd" clip-rule="evenodd" d="M117 180H121.01V181H122.01V182H123.01V186.01H122.01V187.01H121.01V188.01H117V187.01H116V186.01H115V182H116V181H117V180ZM121 187V186H122V182.01H121V181.01H117.01V182.01H116.01V186H117.01V187H121Z" fill="#0CA85D"/>
<path d="M191.009 202.005H195.019V203.005H196.019V207.015H195.019V208.015H191.009V207.015H190.009V203.005H191.009V202.005Z" fill="#172217"/>
<path fill-rule="evenodd" clip-rule="evenodd" d="M191.009 201.005H195.019V202.005H196.019V203.005H197.019V207.015H196.019V208.015H195.019V209.015H191.009V208.015H190.009V207.015H189.009V203.005H190.009V202.005H191.009V201.005ZM195.009 208.005V207.005H196.009V203.015H195.009V202.015H191.019V203.015H190.019V207.005H191.019V208.005H195.009Z" fill="#0CA85D"/>
<path d="M136 42.9998H140.01V43.9998H141.01V48.0098H140.01V49.0098H136V48.0098H135V43.9998H136V42.9998Z" fill="#172217"/>
<path fill-rule="evenodd" clip-rule="evenodd" d="M136 41.9998H140.01V42.9998H141.01V43.9998H142.01V48.0098H141.01V49.0098H140.01V50.0098H136V49.0098H135V48.0098H134V43.9998H135V42.9998H136V41.9998ZM140 48.9998V47.9998H141V44.0098H140V43.0098H136.01V44.0098H135.01V47.9998H136.01V48.9998H140Z" fill="#0CA85D"/>
</svg>
