<svg width="256" height="256" viewBox="0 0 256 256" fill="none" xmlns="http://www.w3.org/2000/svg">
<path d="M193.014 134.994H192.004V136.004H193.014V134.994Z" fill="#0CA85D"/>
<path fill-rule="evenodd" clip-rule="evenodd" d="M188.004 128.994H192.014V129.994H193.014V134.004H192.014V135.004H191.014V137.004H189.004V135.004H188.004V134.004H187.004V129.994H188.004V128.994ZM191.004 133.994V133.004H189.014V133.994H191.004ZM192.004 132.994V131.004H191.014V132.994H192.004ZM188.014 132.994H189.004V131.004H188.014V132.994ZM191.004 130.004V130.994H189.014V130.004H191.004Z" fill="#0F380F"/>
<path fill-rule="evenodd" clip-rule="evenodd" d="M189.004 129.994H191.014V130.994H192.014V133.004H191.014V134.004H189.004V133.004H188.004V130.994H189.004V129.994ZM191.004 132.994H189.014V131.004H191.004V132.994Z" fill="#11ED83"/>
<path fill-rule="evenodd" clip-rule="evenodd" d="M188.004 127.994H192.014V128.994H193.014V129.994H194.014V134.004H193.014V135.004H192.014V137.004H191.014V138.004H189.004V137.004H188.004V135.004H187.004V134.004H186.004V129.994H187.004V128.994H188.004V127.994ZM191.004 136.994V134.994H192.004V133.994H193.004V130.004H192.004V129.004H188.014V130.004H187.014V133.994H188.014V134.994H189.014V136.994H191.004Z" fill="#11ED83"/>
</svg>
