<svg width="256" height="256" viewBox="0 0 256 256" fill="none" xmlns="http://www.w3.org/2000/svg">
<path d="M141.01 43.9948H140V45.0048H141.01V43.9948Z" fill="#0CA85D"/>
<path fill-rule="evenodd" clip-rule="evenodd" d="M136 37.9948H140.01V38.9948H141.01V43.0048H140.01V44.0048H139.01V46.0048H137V44.0048H136V43.0048H135V38.9948H136V37.9948ZM139 42.9948V42.0048H137.01V42.9948H139ZM140 41.9948V40.0048H139.01V41.9948H140ZM136.01 41.9948H137V40.0048H136.01V41.9948ZM139 39.0048V39.9948H137.01V39.0048H139Z" fill="#0F380F"/>
<path fill-rule="evenodd" clip-rule="evenodd" d="M137 38.9948H139.01V39.9948H140.01V42.0048H139.01V43.0048H137V42.0048H136V39.9948H137V38.9948ZM139 41.9948H137.01V40.0048H139V41.9948Z" fill="#11ED83"/>
<path fill-rule="evenodd" clip-rule="evenodd" d="M136 36.9948H140.01V37.9948H141.01V38.9948H142.01V43.0048H141.01V44.0048H140.01V46.0048H139.01V47.0048H137V46.0048H136V44.0048H135V43.0048H134V38.9948H135V37.9948H136V36.9948ZM139 45.9948V43.9948H140V42.9948H141V39.0048H140V38.0048H136.01V39.0048H135.01V42.9948H136.01V43.9948H137.01V45.9948H139Z" fill="#11ED83"/>
</svg>
